<mxfile host="app.diagrams.net" modified="2024-04-13T06:18:21.707Z" agent="Mozilla/5.0 (Windows NT 10.0; Win64; x64) AppleWebKit/537.36 (KHTML, like Gecko) Chrome/123.0.0.0 Safari/537.36" etag="uqO8II8pZAa2jqYDd4fN" version="24.2.2" type="github" pages="3">
  <diagram name="AVL树" id="tC0FPUk4Jzhcy8zikF_q">
    <mxGraphModel dx="1221" dy="705" grid="1" gridSize="10" guides="1" tooltips="1" connect="1" arrows="1" fold="1" page="1" pageScale="1" pageWidth="827" pageHeight="1169" math="0" shadow="0">
      <root>
        <mxCell id="0" />
        <mxCell id="1" parent="0" />
        <mxCell id="XMEuirU_Q9yyJEPsxwqP-11" style="rounded=0;orthogonalLoop=1;jettySize=auto;html=1;exitX=0;exitY=1;exitDx=0;exitDy=0;entryX=1;entryY=0;entryDx=0;entryDy=0;" parent="1" source="XMEuirU_Q9yyJEPsxwqP-1" target="XMEuirU_Q9yyJEPsxwqP-3" edge="1">
          <mxGeometry relative="1" as="geometry" />
        </mxCell>
        <mxCell id="XMEuirU_Q9yyJEPsxwqP-12" style="rounded=0;orthogonalLoop=1;jettySize=auto;html=1;exitX=1;exitY=1;exitDx=0;exitDy=0;entryX=0;entryY=0;entryDx=0;entryDy=0;" parent="1" source="XMEuirU_Q9yyJEPsxwqP-1" target="XMEuirU_Q9yyJEPsxwqP-9" edge="1">
          <mxGeometry relative="1" as="geometry" />
        </mxCell>
        <mxCell id="XMEuirU_Q9yyJEPsxwqP-1" value="8" style="ellipse;whiteSpace=wrap;html=1;aspect=fixed;fontSize=20;fillColor=#d5e8d4;strokeColor=#82b366;" parent="1" vertex="1">
          <mxGeometry x="290" y="130" width="60" height="60" as="geometry" />
        </mxCell>
        <mxCell id="XMEuirU_Q9yyJEPsxwqP-13" style="rounded=0;orthogonalLoop=1;jettySize=auto;html=1;exitX=0;exitY=1;exitDx=0;exitDy=0;entryX=1;entryY=0;entryDx=0;entryDy=0;" parent="1" source="XMEuirU_Q9yyJEPsxwqP-3" target="XMEuirU_Q9yyJEPsxwqP-8" edge="1">
          <mxGeometry relative="1" as="geometry" />
        </mxCell>
        <mxCell id="XMEuirU_Q9yyJEPsxwqP-14" style="rounded=0;orthogonalLoop=1;jettySize=auto;html=1;exitX=1;exitY=1;exitDx=0;exitDy=0;entryX=0;entryY=0;entryDx=0;entryDy=0;" parent="1" source="XMEuirU_Q9yyJEPsxwqP-3" target="XMEuirU_Q9yyJEPsxwqP-7" edge="1">
          <mxGeometry relative="1" as="geometry" />
        </mxCell>
        <mxCell id="XMEuirU_Q9yyJEPsxwqP-3" value="4" style="ellipse;whiteSpace=wrap;html=1;aspect=fixed;fontSize=20;fillColor=#d5e8d4;strokeColor=#82b366;" parent="1" vertex="1">
          <mxGeometry x="220" y="200" width="60" height="60" as="geometry" />
        </mxCell>
        <mxCell id="XMEuirU_Q9yyJEPsxwqP-6" value="1" style="ellipse;whiteSpace=wrap;html=1;aspect=fixed;fontSize=20;fillColor=#f8cecc;strokeColor=#b85450;" parent="1" vertex="1">
          <mxGeometry x="70" y="350" width="60" height="60" as="geometry" />
        </mxCell>
        <mxCell id="XMEuirU_Q9yyJEPsxwqP-7" value="6" style="ellipse;whiteSpace=wrap;html=1;aspect=fixed;fontSize=20;fillColor=#d5e8d4;strokeColor=#82b366;" parent="1" vertex="1">
          <mxGeometry x="280" y="280" width="60" height="60" as="geometry" />
        </mxCell>
        <mxCell id="XMEuirU_Q9yyJEPsxwqP-15" style="rounded=0;orthogonalLoop=1;jettySize=auto;html=1;exitX=0;exitY=1;exitDx=0;exitDy=0;entryX=1;entryY=0;entryDx=0;entryDy=0;" parent="1" source="XMEuirU_Q9yyJEPsxwqP-8" target="XMEuirU_Q9yyJEPsxwqP-6" edge="1">
          <mxGeometry relative="1" as="geometry" />
        </mxCell>
        <mxCell id="XMEuirU_Q9yyJEPsxwqP-8" value="2" style="ellipse;whiteSpace=wrap;html=1;aspect=fixed;fontSize=20;fillColor=#d5e8d4;strokeColor=#82b366;" parent="1" vertex="1">
          <mxGeometry x="140" y="280" width="60" height="60" as="geometry" />
        </mxCell>
        <mxCell id="XMEuirU_Q9yyJEPsxwqP-9" value="12" style="ellipse;whiteSpace=wrap;html=1;aspect=fixed;fontSize=20;fillColor=#d5e8d4;strokeColor=#82b366;" parent="1" vertex="1">
          <mxGeometry x="354" y="200" width="60" height="60" as="geometry" />
        </mxCell>
        <mxCell id="XMEuirU_Q9yyJEPsxwqP-10" value="非AVL树" style="text;html=1;align=center;verticalAlign=middle;whiteSpace=wrap;rounded=0;fontSize=20;" parent="1" vertex="1">
          <mxGeometry x="125" y="145" width="90" height="30" as="geometry" />
        </mxCell>
        <mxCell id="XMEuirU_Q9yyJEPsxwqP-16" style="rounded=0;orthogonalLoop=1;jettySize=auto;html=1;exitX=0;exitY=1;exitDx=0;exitDy=0;entryX=1;entryY=0;entryDx=0;entryDy=0;" parent="1" source="XMEuirU_Q9yyJEPsxwqP-18" target="XMEuirU_Q9yyJEPsxwqP-21" edge="1">
          <mxGeometry relative="1" as="geometry" />
        </mxCell>
        <mxCell id="XMEuirU_Q9yyJEPsxwqP-17" style="rounded=0;orthogonalLoop=1;jettySize=auto;html=1;exitX=1;exitY=1;exitDx=0;exitDy=0;entryX=0;entryY=0;entryDx=0;entryDy=0;" parent="1" source="XMEuirU_Q9yyJEPsxwqP-18" target="XMEuirU_Q9yyJEPsxwqP-26" edge="1">
          <mxGeometry relative="1" as="geometry" />
        </mxCell>
        <mxCell id="XMEuirU_Q9yyJEPsxwqP-18" value="8" style="ellipse;whiteSpace=wrap;html=1;aspect=fixed;fontSize=20;fillColor=#d5e8d4;strokeColor=#82b366;" parent="1" vertex="1">
          <mxGeometry x="938" y="130" width="60" height="60" as="geometry" />
        </mxCell>
        <mxCell id="XMEuirU_Q9yyJEPsxwqP-19" style="rounded=0;orthogonalLoop=1;jettySize=auto;html=1;exitX=0;exitY=1;exitDx=0;exitDy=0;entryX=1;entryY=0;entryDx=0;entryDy=0;" parent="1" source="XMEuirU_Q9yyJEPsxwqP-21" target="XMEuirU_Q9yyJEPsxwqP-25" edge="1">
          <mxGeometry relative="1" as="geometry" />
        </mxCell>
        <mxCell id="XMEuirU_Q9yyJEPsxwqP-20" style="rounded=0;orthogonalLoop=1;jettySize=auto;html=1;exitX=1;exitY=1;exitDx=0;exitDy=0;entryX=0;entryY=0;entryDx=0;entryDy=0;" parent="1" source="XMEuirU_Q9yyJEPsxwqP-21" target="XMEuirU_Q9yyJEPsxwqP-23" edge="1">
          <mxGeometry relative="1" as="geometry" />
        </mxCell>
        <mxCell id="XMEuirU_Q9yyJEPsxwqP-21" value="4" style="ellipse;whiteSpace=wrap;html=1;aspect=fixed;fontSize=20;fillColor=#d5e8d4;strokeColor=#82b366;" parent="1" vertex="1">
          <mxGeometry x="868" y="200" width="60" height="60" as="geometry" />
        </mxCell>
        <mxCell id="XMEuirU_Q9yyJEPsxwqP-22" value="1" style="ellipse;whiteSpace=wrap;html=1;aspect=fixed;fontSize=20;fillColor=#f8cecc;strokeColor=#b85450;" parent="1" vertex="1">
          <mxGeometry x="658" y="280" width="60" height="60" as="geometry" />
        </mxCell>
        <mxCell id="XMEuirU_Q9yyJEPsxwqP-23" value="6" style="ellipse;whiteSpace=wrap;html=1;aspect=fixed;fontSize=20;fillColor=#d5e8d4;strokeColor=#82b366;" parent="1" vertex="1">
          <mxGeometry x="928" y="280" width="60" height="60" as="geometry" />
        </mxCell>
        <mxCell id="XMEuirU_Q9yyJEPsxwqP-25" value="2" style="ellipse;whiteSpace=wrap;html=1;aspect=fixed;fontSize=20;fillColor=#d5e8d4;strokeColor=#82b366;" parent="1" vertex="1">
          <mxGeometry x="788" y="280" width="60" height="60" as="geometry" />
        </mxCell>
        <mxCell id="XMEuirU_Q9yyJEPsxwqP-26" value="12" style="ellipse;whiteSpace=wrap;html=1;aspect=fixed;fontSize=20;fillColor=#d5e8d4;strokeColor=#82b366;" parent="1" vertex="1">
          <mxGeometry x="1002" y="200" width="60" height="60" as="geometry" />
        </mxCell>
        <mxCell id="XMEuirU_Q9yyJEPsxwqP-27" value="AVL树：任意节点的两棵子树的高度差最大为1" style="text;html=1;align=center;verticalAlign=middle;whiteSpace=wrap;rounded=0;fontSize=20;" parent="1" vertex="1">
          <mxGeometry x="688" y="130" width="225" height="45" as="geometry" />
        </mxCell>
        <mxCell id="XMEuirU_Q9yyJEPsxwqP-28" style="rounded=0;orthogonalLoop=1;jettySize=auto;html=1;exitX=0;exitY=1;exitDx=0;exitDy=0;entryX=1;entryY=0;entryDx=0;entryDy=0;" parent="1" source="XMEuirU_Q9yyJEPsxwqP-30" target="XMEuirU_Q9yyJEPsxwqP-33" edge="1">
          <mxGeometry relative="1" as="geometry" />
        </mxCell>
        <mxCell id="XMEuirU_Q9yyJEPsxwqP-29" style="rounded=0;orthogonalLoop=1;jettySize=auto;html=1;exitX=1;exitY=1;exitDx=0;exitDy=0;entryX=0;entryY=0;entryDx=0;entryDy=0;" parent="1" source="XMEuirU_Q9yyJEPsxwqP-30" target="XMEuirU_Q9yyJEPsxwqP-38" edge="1">
          <mxGeometry relative="1" as="geometry" />
        </mxCell>
        <mxCell id="XMEuirU_Q9yyJEPsxwqP-30" value="8" style="ellipse;whiteSpace=wrap;html=1;aspect=fixed;fontSize=20;fillColor=#d5e8d4;strokeColor=#82b366;" parent="1" vertex="1">
          <mxGeometry x="290" y="450" width="60" height="60" as="geometry" />
        </mxCell>
        <mxCell id="XMEuirU_Q9yyJEPsxwqP-31" style="rounded=0;orthogonalLoop=1;jettySize=auto;html=1;exitX=0;exitY=1;exitDx=0;exitDy=0;entryX=1;entryY=0;entryDx=0;entryDy=0;" parent="1" source="XMEuirU_Q9yyJEPsxwqP-33" target="XMEuirU_Q9yyJEPsxwqP-37" edge="1">
          <mxGeometry relative="1" as="geometry" />
        </mxCell>
        <mxCell id="XMEuirU_Q9yyJEPsxwqP-32" style="rounded=0;orthogonalLoop=1;jettySize=auto;html=1;exitX=1;exitY=1;exitDx=0;exitDy=0;entryX=0;entryY=0;entryDx=0;entryDy=0;" parent="1" source="XMEuirU_Q9yyJEPsxwqP-33" target="XMEuirU_Q9yyJEPsxwqP-35" edge="1">
          <mxGeometry relative="1" as="geometry" />
        </mxCell>
        <mxCell id="XMEuirU_Q9yyJEPsxwqP-33" value="4" style="ellipse;whiteSpace=wrap;html=1;aspect=fixed;fontSize=20;fillColor=#d5e8d4;strokeColor=#82b366;" parent="1" vertex="1">
          <mxGeometry x="220" y="520" width="60" height="60" as="geometry" />
        </mxCell>
        <mxCell id="XMEuirU_Q9yyJEPsxwqP-34" value="1" style="ellipse;whiteSpace=wrap;html=1;aspect=fixed;fontSize=20;fillColor=#f8cecc;strokeColor=#b85450;" parent="1" vertex="1">
          <mxGeometry x="70" y="670" width="60" height="60" as="geometry" />
        </mxCell>
        <mxCell id="XMEuirU_Q9yyJEPsxwqP-35" value="6" style="ellipse;whiteSpace=wrap;html=1;aspect=fixed;fontSize=20;fillColor=#d5e8d4;strokeColor=#82b366;" parent="1" vertex="1">
          <mxGeometry x="280" y="600" width="60" height="60" as="geometry" />
        </mxCell>
        <mxCell id="XMEuirU_Q9yyJEPsxwqP-36" style="rounded=0;orthogonalLoop=1;jettySize=auto;html=1;exitX=0;exitY=1;exitDx=0;exitDy=0;entryX=1;entryY=0;entryDx=0;entryDy=0;" parent="1" source="XMEuirU_Q9yyJEPsxwqP-37" target="XMEuirU_Q9yyJEPsxwqP-34" edge="1">
          <mxGeometry relative="1" as="geometry" />
        </mxCell>
        <mxCell id="XMEuirU_Q9yyJEPsxwqP-37" value="2" style="ellipse;whiteSpace=wrap;html=1;aspect=fixed;fontSize=20;fillColor=#d5e8d4;strokeColor=#82b366;" parent="1" vertex="1">
          <mxGeometry x="140" y="600" width="60" height="60" as="geometry" />
        </mxCell>
        <mxCell id="XMEuirU_Q9yyJEPsxwqP-38" value="12" style="ellipse;whiteSpace=wrap;html=1;aspect=fixed;fontSize=20;fillColor=#d5e8d4;strokeColor=#82b366;" parent="1" vertex="1">
          <mxGeometry x="354" y="520" width="60" height="60" as="geometry" />
        </mxCell>
        <mxCell id="XMEuirU_Q9yyJEPsxwqP-39" value="非AVL树" style="text;html=1;align=center;verticalAlign=middle;whiteSpace=wrap;rounded=0;fontSize=20;" parent="1" vertex="1">
          <mxGeometry x="125" y="465" width="90" height="30" as="geometry" />
        </mxCell>
        <mxCell id="XMEuirU_Q9yyJEPsxwqP-41" style="rounded=0;orthogonalLoop=1;jettySize=auto;html=1;exitX=1;exitY=1;exitDx=0;exitDy=0;entryX=0;entryY=0;entryDx=0;entryDy=0;" parent="1" source="XMEuirU_Q9yyJEPsxwqP-42" target="XMEuirU_Q9yyJEPsxwqP-50" edge="1">
          <mxGeometry relative="1" as="geometry" />
        </mxCell>
        <mxCell id="XMEuirU_Q9yyJEPsxwqP-42" value="8" style="ellipse;whiteSpace=wrap;html=1;aspect=fixed;fontSize=20;fillColor=#d5e8d4;strokeColor=#82b366;" parent="1" vertex="1">
          <mxGeometry x="988" y="530" width="60" height="60" as="geometry" />
        </mxCell>
        <mxCell id="XMEuirU_Q9yyJEPsxwqP-43" style="rounded=0;orthogonalLoop=1;jettySize=auto;html=1;exitX=0;exitY=1;exitDx=0;exitDy=0;entryX=1;entryY=0;entryDx=0;entryDy=0;" parent="1" source="XMEuirU_Q9yyJEPsxwqP-45" target="XMEuirU_Q9yyJEPsxwqP-49" edge="1">
          <mxGeometry relative="1" as="geometry" />
        </mxCell>
        <mxCell id="XMEuirU_Q9yyJEPsxwqP-44" style="rounded=0;orthogonalLoop=1;jettySize=auto;html=1;exitX=0;exitY=1;exitDx=0;exitDy=0;entryX=1;entryY=0;entryDx=0;entryDy=0;" parent="1" source="XMEuirU_Q9yyJEPsxwqP-42" target="XMEuirU_Q9yyJEPsxwqP-47" edge="1">
          <mxGeometry relative="1" as="geometry" />
        </mxCell>
        <mxCell id="XMEuirU_Q9yyJEPsxwqP-54" style="rounded=0;orthogonalLoop=1;jettySize=auto;html=1;exitX=1;exitY=1;exitDx=0;exitDy=0;entryX=0;entryY=0;entryDx=0;entryDy=0;" parent="1" source="XMEuirU_Q9yyJEPsxwqP-45" target="XMEuirU_Q9yyJEPsxwqP-42" edge="1">
          <mxGeometry relative="1" as="geometry" />
        </mxCell>
        <mxCell id="XMEuirU_Q9yyJEPsxwqP-45" value="4" style="ellipse;whiteSpace=wrap;html=1;aspect=fixed;fontSize=20;fillColor=#d5e8d4;strokeColor=#82b366;" parent="1" vertex="1">
          <mxGeometry x="920" y="450" width="60" height="60" as="geometry" />
        </mxCell>
        <mxCell id="XMEuirU_Q9yyJEPsxwqP-46" value="1" style="ellipse;whiteSpace=wrap;html=1;aspect=fixed;fontSize=20;fillColor=#f8cecc;strokeColor=#b85450;" parent="1" vertex="1">
          <mxGeometry x="770" y="600" width="60" height="60" as="geometry" />
        </mxCell>
        <mxCell id="XMEuirU_Q9yyJEPsxwqP-47" value="6" style="ellipse;whiteSpace=wrap;html=1;aspect=fixed;fontSize=20;fillColor=#d5e8d4;strokeColor=#82b366;" parent="1" vertex="1">
          <mxGeometry x="928" y="600" width="60" height="60" as="geometry" />
        </mxCell>
        <mxCell id="XMEuirU_Q9yyJEPsxwqP-48" style="rounded=0;orthogonalLoop=1;jettySize=auto;html=1;exitX=0;exitY=1;exitDx=0;exitDy=0;entryX=1;entryY=0;entryDx=0;entryDy=0;" parent="1" source="XMEuirU_Q9yyJEPsxwqP-49" target="XMEuirU_Q9yyJEPsxwqP-46" edge="1">
          <mxGeometry relative="1" as="geometry" />
        </mxCell>
        <mxCell id="XMEuirU_Q9yyJEPsxwqP-49" value="2" style="ellipse;whiteSpace=wrap;html=1;aspect=fixed;fontSize=20;fillColor=#d5e8d4;strokeColor=#82b366;" parent="1" vertex="1">
          <mxGeometry x="840" y="530" width="60" height="60" as="geometry" />
        </mxCell>
        <mxCell id="XMEuirU_Q9yyJEPsxwqP-50" value="12" style="ellipse;whiteSpace=wrap;html=1;aspect=fixed;fontSize=20;fillColor=#d5e8d4;strokeColor=#82b366;" parent="1" vertex="1">
          <mxGeometry x="1048" y="600" width="60" height="60" as="geometry" />
        </mxCell>
        <mxCell id="XMEuirU_Q9yyJEPsxwqP-51" value="AVL树" style="text;html=1;align=center;verticalAlign=middle;whiteSpace=wrap;rounded=0;fontSize=20;" parent="1" vertex="1">
          <mxGeometry x="773" y="465" width="90" height="30" as="geometry" />
        </mxCell>
        <mxCell id="XMEuirU_Q9yyJEPsxwqP-52" value="" style="shape=flexArrow;endArrow=classic;html=1;rounded=0;" parent="1" edge="1">
          <mxGeometry width="50" height="50" relative="1" as="geometry">
            <mxPoint x="520" y="449" as="sourcePoint" />
            <mxPoint x="700" y="449" as="targetPoint" />
          </mxGeometry>
        </mxCell>
        <mxCell id="XMEuirU_Q9yyJEPsxwqP-53" value="LL旋转" style="edgeLabel;html=1;align=center;verticalAlign=middle;resizable=0;points=[];fontSize=18;" parent="XMEuirU_Q9yyJEPsxwqP-52" vertex="1" connectable="0">
          <mxGeometry x="-0.0556" relative="1" as="geometry">
            <mxPoint as="offset" />
          </mxGeometry>
        </mxCell>
        <mxCell id="XMEuirU_Q9yyJEPsxwqP-55" value="1.将原根节点的左子节点作为新根节点&lt;br style=&quot;font-size: 18px;&quot;&gt;2.将新根节点的右子节点作为原根节点的左子节点&lt;br style=&quot;font-size: 18px;&quot;&gt;3.将原根节点作为新根节点的右子节点" style="text;html=1;align=left;verticalAlign=middle;whiteSpace=wrap;rounded=0;fontSize=18;" parent="1" vertex="1">
          <mxGeometry x="420" y="520" width="397" height="80" as="geometry" />
        </mxCell>
        <mxCell id="XMEuirU_Q9yyJEPsxwqP-56" style="rounded=0;orthogonalLoop=1;jettySize=auto;html=1;exitX=0;exitY=1;exitDx=0;exitDy=0;entryX=1;entryY=0;entryDx=0;entryDy=0;" parent="1" source="XMEuirU_Q9yyJEPsxwqP-58" target="XMEuirU_Q9yyJEPsxwqP-61" edge="1">
          <mxGeometry relative="1" as="geometry" />
        </mxCell>
        <mxCell id="XMEuirU_Q9yyJEPsxwqP-57" style="rounded=0;orthogonalLoop=1;jettySize=auto;html=1;exitX=1;exitY=1;exitDx=0;exitDy=0;entryX=0;entryY=0;entryDx=0;entryDy=0;" parent="1" source="XMEuirU_Q9yyJEPsxwqP-58" target="XMEuirU_Q9yyJEPsxwqP-66" edge="1">
          <mxGeometry relative="1" as="geometry" />
        </mxCell>
        <mxCell id="XMEuirU_Q9yyJEPsxwqP-58" value="8" style="ellipse;whiteSpace=wrap;html=1;aspect=fixed;fontSize=20;fillColor=#d5e8d4;strokeColor=#82b366;" parent="1" vertex="1">
          <mxGeometry x="170" y="790" width="60" height="60" as="geometry" />
        </mxCell>
        <mxCell id="XMEuirU_Q9yyJEPsxwqP-61" value="4" style="ellipse;whiteSpace=wrap;html=1;aspect=fixed;fontSize=20;fillColor=#d5e8d4;strokeColor=#82b366;" parent="1" vertex="1">
          <mxGeometry x="100" y="860" width="60" height="60" as="geometry" />
        </mxCell>
        <mxCell id="XMEuirU_Q9yyJEPsxwqP-72" style="rounded=0;orthogonalLoop=1;jettySize=auto;html=1;exitX=1;exitY=1;exitDx=0;exitDy=0;entryX=0;entryY=0;entryDx=0;entryDy=0;" parent="1" source="XMEuirU_Q9yyJEPsxwqP-66" target="XMEuirU_Q9yyJEPsxwqP-68" edge="1">
          <mxGeometry relative="1" as="geometry" />
        </mxCell>
        <mxCell id="XMEuirU_Q9yyJEPsxwqP-66" value="12" style="ellipse;whiteSpace=wrap;html=1;aspect=fixed;fontSize=20;fillColor=#d5e8d4;strokeColor=#82b366;" parent="1" vertex="1">
          <mxGeometry x="234" y="860" width="60" height="60" as="geometry" />
        </mxCell>
        <mxCell id="XMEuirU_Q9yyJEPsxwqP-67" value="非AVL树" style="text;html=1;align=center;verticalAlign=middle;whiteSpace=wrap;rounded=0;fontSize=20;" parent="1" vertex="1">
          <mxGeometry x="55" y="805" width="90" height="30" as="geometry" />
        </mxCell>
        <mxCell id="XMEuirU_Q9yyJEPsxwqP-71" style="rounded=0;orthogonalLoop=1;jettySize=auto;html=1;exitX=1;exitY=1;exitDx=0;exitDy=0;entryX=0;entryY=0;entryDx=0;entryDy=0;" parent="1" source="XMEuirU_Q9yyJEPsxwqP-68" target="XMEuirU_Q9yyJEPsxwqP-70" edge="1">
          <mxGeometry relative="1" as="geometry" />
        </mxCell>
        <mxCell id="XMEuirU_Q9yyJEPsxwqP-68" value="13" style="ellipse;whiteSpace=wrap;html=1;aspect=fixed;fontSize=20;fillColor=#d5e8d4;strokeColor=#82b366;" parent="1" vertex="1">
          <mxGeometry x="294" y="940" width="60" height="60" as="geometry" />
        </mxCell>
        <mxCell id="XMEuirU_Q9yyJEPsxwqP-69" value="10" style="ellipse;whiteSpace=wrap;html=1;aspect=fixed;fontSize=20;fillColor=#d5e8d4;strokeColor=#82b366;" parent="1" vertex="1">
          <mxGeometry x="174" y="940" width="60" height="60" as="geometry" />
        </mxCell>
        <mxCell id="XMEuirU_Q9yyJEPsxwqP-70" value="14" style="ellipse;whiteSpace=wrap;html=1;aspect=fixed;fontSize=20;fillColor=#d5e8d4;strokeColor=#82b366;" parent="1" vertex="1">
          <mxGeometry x="354" y="1010" width="60" height="60" as="geometry" />
        </mxCell>
        <mxCell id="XMEuirU_Q9yyJEPsxwqP-73" style="rounded=0;orthogonalLoop=1;jettySize=auto;html=1;exitX=0;exitY=1;exitDx=0;exitDy=0;entryX=0.722;entryY=0.1;entryDx=0;entryDy=0;entryPerimeter=0;" parent="1" source="XMEuirU_Q9yyJEPsxwqP-66" target="XMEuirU_Q9yyJEPsxwqP-69" edge="1">
          <mxGeometry relative="1" as="geometry" />
        </mxCell>
        <mxCell id="XMEuirU_Q9yyJEPsxwqP-74" style="rounded=0;orthogonalLoop=1;jettySize=auto;html=1;exitX=0;exitY=1;exitDx=0;exitDy=0;entryX=1;entryY=0;entryDx=0;entryDy=0;" parent="1" source="XMEuirU_Q9yyJEPsxwqP-76" target="XMEuirU_Q9yyJEPsxwqP-77" edge="1">
          <mxGeometry relative="1" as="geometry" />
        </mxCell>
        <mxCell id="XMEuirU_Q9yyJEPsxwqP-86" style="rounded=0;orthogonalLoop=1;jettySize=auto;html=1;exitX=1;exitY=1;exitDx=0;exitDy=0;entryX=0;entryY=0;entryDx=0;entryDy=0;" parent="1" source="XMEuirU_Q9yyJEPsxwqP-76" target="XMEuirU_Q9yyJEPsxwqP-83" edge="1">
          <mxGeometry relative="1" as="geometry" />
        </mxCell>
        <mxCell id="XMEuirU_Q9yyJEPsxwqP-76" value="8" style="ellipse;whiteSpace=wrap;html=1;aspect=fixed;fontSize=20;fillColor=#d5e8d4;strokeColor=#82b366;" parent="1" vertex="1">
          <mxGeometry x="860" y="860" width="60" height="60" as="geometry" />
        </mxCell>
        <mxCell id="XMEuirU_Q9yyJEPsxwqP-77" value="4" style="ellipse;whiteSpace=wrap;html=1;aspect=fixed;fontSize=20;fillColor=#d5e8d4;strokeColor=#82b366;" parent="1" vertex="1">
          <mxGeometry x="788" y="950" width="60" height="60" as="geometry" />
        </mxCell>
        <mxCell id="XMEuirU_Q9yyJEPsxwqP-78" style="rounded=0;orthogonalLoop=1;jettySize=auto;html=1;exitX=1;exitY=1;exitDx=0;exitDy=0;entryX=0;entryY=0;entryDx=0;entryDy=0;" parent="1" source="XMEuirU_Q9yyJEPsxwqP-79" target="XMEuirU_Q9yyJEPsxwqP-82" edge="1">
          <mxGeometry relative="1" as="geometry" />
        </mxCell>
        <mxCell id="XMEuirU_Q9yyJEPsxwqP-79" value="12" style="ellipse;whiteSpace=wrap;html=1;aspect=fixed;fontSize=20;fillColor=#d5e8d4;strokeColor=#82b366;" parent="1" vertex="1">
          <mxGeometry x="950" y="790" width="60" height="60" as="geometry" />
        </mxCell>
        <mxCell id="XMEuirU_Q9yyJEPsxwqP-80" value="非AVL树" style="text;html=1;align=center;verticalAlign=middle;whiteSpace=wrap;rounded=0;fontSize=20;" parent="1" vertex="1">
          <mxGeometry x="778" y="820" width="90" height="30" as="geometry" />
        </mxCell>
        <mxCell id="XMEuirU_Q9yyJEPsxwqP-81" style="rounded=0;orthogonalLoop=1;jettySize=auto;html=1;exitX=1;exitY=1;exitDx=0;exitDy=0;entryX=0;entryY=0;entryDx=0;entryDy=0;" parent="1" source="XMEuirU_Q9yyJEPsxwqP-82" target="XMEuirU_Q9yyJEPsxwqP-84" edge="1">
          <mxGeometry relative="1" as="geometry" />
        </mxCell>
        <mxCell id="XMEuirU_Q9yyJEPsxwqP-82" value="13" style="ellipse;whiteSpace=wrap;html=1;aspect=fixed;fontSize=20;fillColor=#d5e8d4;strokeColor=#82b366;" parent="1" vertex="1">
          <mxGeometry x="1030" y="860" width="60" height="60" as="geometry" />
        </mxCell>
        <mxCell id="XMEuirU_Q9yyJEPsxwqP-83" value="10" style="ellipse;whiteSpace=wrap;html=1;aspect=fixed;fontSize=20;fillColor=#d5e8d4;strokeColor=#82b366;" parent="1" vertex="1">
          <mxGeometry x="920" y="950" width="60" height="60" as="geometry" />
        </mxCell>
        <mxCell id="XMEuirU_Q9yyJEPsxwqP-84" value="14" style="ellipse;whiteSpace=wrap;html=1;aspect=fixed;fontSize=20;fillColor=#d5e8d4;strokeColor=#82b366;" parent="1" vertex="1">
          <mxGeometry x="1100" y="950" width="60" height="60" as="geometry" />
        </mxCell>
        <mxCell id="XMEuirU_Q9yyJEPsxwqP-85" style="rounded=0;orthogonalLoop=1;jettySize=auto;html=1;exitX=0;exitY=1;exitDx=0;exitDy=0;entryX=1;entryY=0;entryDx=0;entryDy=0;" parent="1" source="XMEuirU_Q9yyJEPsxwqP-79" target="XMEuirU_Q9yyJEPsxwqP-76" edge="1">
          <mxGeometry relative="1" as="geometry">
            <mxPoint x="967.5000000000001" y="836" as="targetPoint" />
          </mxGeometry>
        </mxCell>
        <mxCell id="XMEuirU_Q9yyJEPsxwqP-99" value="" style="shape=flexArrow;endArrow=classic;html=1;rounded=0;" parent="1" edge="1">
          <mxGeometry width="50" height="50" relative="1" as="geometry">
            <mxPoint x="500" y="805" as="sourcePoint" />
            <mxPoint x="680" y="805" as="targetPoint" />
          </mxGeometry>
        </mxCell>
        <mxCell id="XMEuirU_Q9yyJEPsxwqP-100" value="RR旋转" style="edgeLabel;html=1;align=center;verticalAlign=middle;resizable=0;points=[];fontSize=18;" parent="XMEuirU_Q9yyJEPsxwqP-99" vertex="1" connectable="0">
          <mxGeometry x="-0.0556" relative="1" as="geometry">
            <mxPoint as="offset" />
          </mxGeometry>
        </mxCell>
        <mxCell id="XMEuirU_Q9yyJEPsxwqP-102" value="1.将原根节点的右子节点作为新根节点&lt;br style=&quot;font-size: 18px;&quot;&gt;2.将新根节点的左子节点作为原根节点的右子节点&lt;br style=&quot;font-size: 18px;&quot;&gt;3.将原根节点作为新根节点的左子节点" style="text;html=1;align=left;verticalAlign=middle;whiteSpace=wrap;rounded=0;fontSize=18;" parent="1" vertex="1">
          <mxGeometry x="400" y="860" width="397" height="80" as="geometry" />
        </mxCell>
      </root>
    </mxGraphModel>
  </diagram>
  <diagram id="UUfOqBAnk8ABvukEZzNu" name="B树">
    <mxGraphModel dx="1221" dy="705" grid="1" gridSize="10" guides="1" tooltips="1" connect="1" arrows="1" fold="1" page="1" pageScale="1" pageWidth="827" pageHeight="1169" math="0" shadow="0">
      <root>
        <mxCell id="0" />
        <mxCell id="1" parent="0" />
        <mxCell id="SZ2jRNqmg7UzGhxb1-0q-25" style="rounded=0;orthogonalLoop=1;jettySize=auto;html=1;exitX=0.5;exitY=1;exitDx=0;exitDy=0;entryX=1;entryY=0;entryDx=0;entryDy=0;endArrow=none;endFill=0;" parent="1" source="SZ2jRNqmg7UzGhxb1-0q-1" target="SZ2jRNqmg7UzGhxb1-0q-15" edge="1">
          <mxGeometry relative="1" as="geometry" />
        </mxCell>
        <mxCell id="SZ2jRNqmg7UzGhxb1-0q-1" value="50" style="rounded=1;whiteSpace=wrap;html=1;fontSize=18;" parent="1" vertex="1">
          <mxGeometry x="414" y="80" width="56" height="40" as="geometry" />
        </mxCell>
        <mxCell id="SZ2jRNqmg7UzGhxb1-0q-2" value="20" style="rounded=1;whiteSpace=wrap;html=1;fontSize=18;" parent="1" vertex="1">
          <mxGeometry x="180" y="160" width="56" height="40" as="geometry" />
        </mxCell>
        <mxCell id="SZ2jRNqmg7UzGhxb1-0q-3" value="52" style="rounded=1;whiteSpace=wrap;html=1;fontSize=18;" parent="1" vertex="1">
          <mxGeometry x="564" y="240" width="56" height="40" as="geometry" />
        </mxCell>
        <mxCell id="SZ2jRNqmg7UzGhxb1-0q-4" value="51" style="rounded=1;whiteSpace=wrap;html=1;fontSize=18;" parent="1" vertex="1">
          <mxGeometry x="500" y="240" width="56" height="40" as="geometry" />
        </mxCell>
        <mxCell id="SZ2jRNqmg7UzGhxb1-0q-5" value="90" style="rounded=1;whiteSpace=wrap;html=1;fontSize=18;" parent="1" vertex="1">
          <mxGeometry x="730" y="160" width="56" height="40" as="geometry" />
        </mxCell>
        <mxCell id="SZ2jRNqmg7UzGhxb1-0q-6" value="70" style="rounded=1;whiteSpace=wrap;html=1;fontSize=18;" parent="1" vertex="1">
          <mxGeometry x="660" y="160" width="56" height="40" as="geometry" />
        </mxCell>
        <mxCell id="SZ2jRNqmg7UzGhxb1-0q-7" value="60" style="rounded=1;whiteSpace=wrap;html=1;fontSize=18;" parent="1" vertex="1">
          <mxGeometry x="590" y="160" width="56" height="40" as="geometry" />
        </mxCell>
        <mxCell id="SZ2jRNqmg7UzGhxb1-0q-8" value="48" style="rounded=1;whiteSpace=wrap;html=1;fontSize=18;" parent="1" vertex="1">
          <mxGeometry x="420" y="240" width="56" height="40" as="geometry" />
        </mxCell>
        <mxCell id="SZ2jRNqmg7UzGhxb1-0q-9" value="38" style="rounded=1;whiteSpace=wrap;html=1;fontSize=18;" parent="1" vertex="1">
          <mxGeometry x="360" y="240" width="56" height="40" as="geometry" />
        </mxCell>
        <mxCell id="SZ2jRNqmg7UzGhxb1-0q-10" value="28" style="rounded=1;whiteSpace=wrap;html=1;fontSize=18;" parent="1" vertex="1">
          <mxGeometry x="280" y="240" width="56" height="40" as="geometry" />
        </mxCell>
        <mxCell id="SZ2jRNqmg7UzGhxb1-0q-11" value="27" style="rounded=1;whiteSpace=wrap;html=1;fontSize=18;" parent="1" vertex="1">
          <mxGeometry x="220" y="240" width="56" height="40" as="geometry" />
        </mxCell>
        <mxCell id="SZ2jRNqmg7UzGhxb1-0q-12" value="25" style="rounded=1;whiteSpace=wrap;html=1;fontSize=18;" parent="1" vertex="1">
          <mxGeometry x="160" y="240" width="56" height="40" as="geometry" />
        </mxCell>
        <mxCell id="SZ2jRNqmg7UzGhxb1-0q-13" value="12" style="rounded=1;whiteSpace=wrap;html=1;fontSize=18;" parent="1" vertex="1">
          <mxGeometry x="80" y="240" width="56" height="40" as="geometry" />
        </mxCell>
        <mxCell id="SZ2jRNqmg7UzGhxb1-0q-14" value="10" style="rounded=1;whiteSpace=wrap;html=1;fontSize=18;" parent="1" vertex="1">
          <mxGeometry x="20" y="240" width="56" height="40" as="geometry" />
        </mxCell>
        <mxCell id="SZ2jRNqmg7UzGhxb1-0q-15" value="35" style="rounded=1;whiteSpace=wrap;html=1;fontSize=18;" parent="1" vertex="1">
          <mxGeometry x="260" y="160" width="56" height="40" as="geometry" />
        </mxCell>
        <mxCell id="SZ2jRNqmg7UzGhxb1-0q-18" value="68" style="rounded=1;whiteSpace=wrap;html=1;fontSize=18;" parent="1" vertex="1">
          <mxGeometry x="700" y="240" width="56" height="40" as="geometry" />
        </mxCell>
        <mxCell id="SZ2jRNqmg7UzGhxb1-0q-19" value="68" style="rounded=1;whiteSpace=wrap;html=1;fontSize=18;" parent="1" vertex="1">
          <mxGeometry x="640" y="240" width="56" height="40" as="geometry" />
        </mxCell>
        <mxCell id="SZ2jRNqmg7UzGhxb1-0q-20" value="72" style="rounded=1;whiteSpace=wrap;html=1;fontSize=18;" parent="1" vertex="1">
          <mxGeometry x="840" y="240" width="56" height="40" as="geometry" />
        </mxCell>
        <mxCell id="SZ2jRNqmg7UzGhxb1-0q-21" value="71" style="rounded=1;whiteSpace=wrap;html=1;fontSize=18;" parent="1" vertex="1">
          <mxGeometry x="780" y="240" width="56" height="40" as="geometry" />
        </mxCell>
        <mxCell id="SZ2jRNqmg7UzGhxb1-0q-22" value="94" style="rounded=1;whiteSpace=wrap;html=1;fontSize=18;" parent="1" vertex="1">
          <mxGeometry x="980" y="240" width="56" height="40" as="geometry" />
        </mxCell>
        <mxCell id="SZ2jRNqmg7UzGhxb1-0q-23" value="93" style="rounded=1;whiteSpace=wrap;html=1;fontSize=18;" parent="1" vertex="1">
          <mxGeometry x="920" y="240" width="56" height="40" as="geometry" />
        </mxCell>
        <mxCell id="SZ2jRNqmg7UzGhxb1-0q-24" value="96" style="rounded=1;whiteSpace=wrap;html=1;fontSize=18;" parent="1" vertex="1">
          <mxGeometry x="1040" y="240" width="56" height="40" as="geometry" />
        </mxCell>
        <mxCell id="SZ2jRNqmg7UzGhxb1-0q-26" style="rounded=0;orthogonalLoop=1;jettySize=auto;html=1;exitX=0;exitY=1;exitDx=0;exitDy=0;entryX=1;entryY=0;entryDx=0;entryDy=0;endArrow=none;endFill=0;" parent="1" source="SZ2jRNqmg7UzGhxb1-0q-2" target="SZ2jRNqmg7UzGhxb1-0q-13" edge="1">
          <mxGeometry relative="1" as="geometry">
            <mxPoint x="171" y="190" as="sourcePoint" />
            <mxPoint x="45" y="230" as="targetPoint" />
          </mxGeometry>
        </mxCell>
        <mxCell id="SZ2jRNqmg7UzGhxb1-0q-28" style="rounded=0;orthogonalLoop=1;jettySize=auto;html=1;entryX=0.5;entryY=0;entryDx=0;entryDy=0;endArrow=none;endFill=0;" parent="1" target="SZ2jRNqmg7UzGhxb1-0q-11" edge="1">
          <mxGeometry relative="1" as="geometry">
            <mxPoint x="248" y="200" as="sourcePoint" />
            <mxPoint x="336" y="180" as="targetPoint" />
          </mxGeometry>
        </mxCell>
        <mxCell id="SZ2jRNqmg7UzGhxb1-0q-29" style="rounded=0;orthogonalLoop=1;jettySize=auto;html=1;exitX=0.5;exitY=0;exitDx=0;exitDy=0;entryX=1;entryY=1;entryDx=0;entryDy=0;endArrow=none;endFill=0;" parent="1" source="SZ2jRNqmg7UzGhxb1-0q-9" target="SZ2jRNqmg7UzGhxb1-0q-15" edge="1">
          <mxGeometry relative="1" as="geometry">
            <mxPoint x="472" y="150" as="sourcePoint" />
            <mxPoint x="346" y="190" as="targetPoint" />
          </mxGeometry>
        </mxCell>
        <mxCell id="SZ2jRNqmg7UzGhxb1-0q-30" style="rounded=0;orthogonalLoop=1;jettySize=auto;html=1;exitX=0.25;exitY=1;exitDx=0;exitDy=0;endArrow=none;endFill=0;entryX=0.375;entryY=-0.017;entryDx=0;entryDy=0;entryPerimeter=0;" parent="1" source="SZ2jRNqmg7UzGhxb1-0q-7" target="SZ2jRNqmg7UzGhxb1-0q-3" edge="1">
          <mxGeometry relative="1" as="geometry">
            <mxPoint x="482" y="160" as="sourcePoint" />
            <mxPoint x="356" y="200" as="targetPoint" />
          </mxGeometry>
        </mxCell>
        <mxCell id="SZ2jRNqmg7UzGhxb1-0q-31" style="rounded=0;orthogonalLoop=1;jettySize=auto;html=1;exitX=0.5;exitY=0;exitDx=0;exitDy=0;entryX=0.75;entryY=1;entryDx=0;entryDy=0;endArrow=none;endFill=0;" parent="1" source="SZ2jRNqmg7UzGhxb1-0q-19" target="SZ2jRNqmg7UzGhxb1-0q-7" edge="1">
          <mxGeometry relative="1" as="geometry">
            <mxPoint x="492" y="170" as="sourcePoint" />
            <mxPoint x="366" y="210" as="targetPoint" />
          </mxGeometry>
        </mxCell>
        <mxCell id="SZ2jRNqmg7UzGhxb1-0q-32" style="rounded=0;orthogonalLoop=1;jettySize=auto;html=1;exitX=0;exitY=0;exitDx=0;exitDy=0;entryX=0.5;entryY=1;entryDx=0;entryDy=0;endArrow=none;endFill=0;" parent="1" source="SZ2jRNqmg7UzGhxb1-0q-21" target="SZ2jRNqmg7UzGhxb1-0q-6" edge="1">
          <mxGeometry relative="1" as="geometry">
            <mxPoint x="502" y="180" as="sourcePoint" />
            <mxPoint x="376" y="220" as="targetPoint" />
          </mxGeometry>
        </mxCell>
        <mxCell id="SZ2jRNqmg7UzGhxb1-0q-33" style="rounded=0;orthogonalLoop=1;jettySize=auto;html=1;exitX=0;exitY=0;exitDx=0;exitDy=0;entryX=1;entryY=1;entryDx=0;entryDy=0;endArrow=none;endFill=0;" parent="1" source="SZ2jRNqmg7UzGhxb1-0q-23" target="SZ2jRNqmg7UzGhxb1-0q-5" edge="1">
          <mxGeometry relative="1" as="geometry">
            <mxPoint x="916" y="140" as="sourcePoint" />
            <mxPoint x="790" y="180" as="targetPoint" />
          </mxGeometry>
        </mxCell>
        <mxCell id="SZ2jRNqmg7UzGhxb1-0q-34" style="rounded=0;orthogonalLoop=1;jettySize=auto;html=1;exitX=0.75;exitY=1;exitDx=0;exitDy=0;entryX=0.25;entryY=0;entryDx=0;entryDy=0;endArrow=none;endFill=0;" parent="1" source="SZ2jRNqmg7UzGhxb1-0q-1" target="SZ2jRNqmg7UzGhxb1-0q-7" edge="1">
          <mxGeometry relative="1" as="geometry">
            <mxPoint x="452" y="130" as="sourcePoint" />
            <mxPoint x="326" y="170" as="targetPoint" />
          </mxGeometry>
        </mxCell>
        <mxCell id="SZ2jRNqmg7UzGhxb1-0q-35" value="上面这颗B树所有子节点中，拥有子节点数最多的是[60,70,90]这个节点，它拥有四个子节点&lt;br style=&quot;font-size: 16px;&quot;&gt;所以这棵树B树称为4阶B树" style="text;html=1;align=left;verticalAlign=middle;whiteSpace=wrap;rounded=0;fontSize=16;" parent="1" vertex="1">
          <mxGeometry x="203" y="310" width="650" height="50" as="geometry" />
        </mxCell>
        <mxCell id="SZ2jRNqmg7UzGhxb1-0q-37" value="4阶B树" style="text;html=1;align=center;verticalAlign=middle;whiteSpace=wrap;rounded=0;fontSize=18;" parent="1" vertex="1">
          <mxGeometry x="156" y="80" width="84" height="30" as="geometry" />
        </mxCell>
        <mxCell id="SZ2jRNqmg7UzGhxb1-0q-70" style="rounded=0;orthogonalLoop=1;jettySize=auto;html=1;exitX=0.5;exitY=1;exitDx=0;exitDy=0;entryX=1;entryY=0;entryDx=0;entryDy=0;endArrow=none;endFill=0;" parent="1" source="SZ2jRNqmg7UzGhxb1-0q-71" target="SZ2jRNqmg7UzGhxb1-0q-85" edge="1">
          <mxGeometry relative="1" as="geometry" />
        </mxCell>
        <mxCell id="SZ2jRNqmg7UzGhxb1-0q-71" value="50" style="rounded=1;whiteSpace=wrap;html=1;fontSize=18;" parent="1" vertex="1">
          <mxGeometry x="424" y="360" width="56" height="40" as="geometry" />
        </mxCell>
        <mxCell id="SZ2jRNqmg7UzGhxb1-0q-72" value="20" style="rounded=1;whiteSpace=wrap;html=1;fontSize=18;" parent="1" vertex="1">
          <mxGeometry x="190" y="440" width="56" height="40" as="geometry" />
        </mxCell>
        <mxCell id="SZ2jRNqmg7UzGhxb1-0q-73" value="52" style="rounded=1;whiteSpace=wrap;html=1;fontSize=18;" parent="1" vertex="1">
          <mxGeometry x="574" y="520" width="56" height="40" as="geometry" />
        </mxCell>
        <mxCell id="SZ2jRNqmg7UzGhxb1-0q-74" value="51" style="rounded=1;whiteSpace=wrap;html=1;fontSize=18;" parent="1" vertex="1">
          <mxGeometry x="510" y="520" width="56" height="40" as="geometry" />
        </mxCell>
        <mxCell id="SZ2jRNqmg7UzGhxb1-0q-75" value="90" style="rounded=1;whiteSpace=wrap;html=1;fontSize=18;" parent="1" vertex="1">
          <mxGeometry x="740" y="440" width="56" height="40" as="geometry" />
        </mxCell>
        <mxCell id="SZ2jRNqmg7UzGhxb1-0q-76" value="70" style="rounded=1;whiteSpace=wrap;html=1;fontSize=18;" parent="1" vertex="1">
          <mxGeometry x="670" y="440" width="56" height="40" as="geometry" />
        </mxCell>
        <mxCell id="SZ2jRNqmg7UzGhxb1-0q-77" value="60" style="rounded=1;whiteSpace=wrap;html=1;fontSize=18;" parent="1" vertex="1">
          <mxGeometry x="600" y="440" width="56" height="40" as="geometry" />
        </mxCell>
        <mxCell id="SZ2jRNqmg7UzGhxb1-0q-78" value="48" style="rounded=1;whiteSpace=wrap;html=1;fontSize=18;" parent="1" vertex="1">
          <mxGeometry x="430" y="520" width="56" height="40" as="geometry" />
        </mxCell>
        <mxCell id="SZ2jRNqmg7UzGhxb1-0q-79" value="38" style="rounded=1;whiteSpace=wrap;html=1;fontSize=18;" parent="1" vertex="1">
          <mxGeometry x="370" y="520" width="56" height="40" as="geometry" />
        </mxCell>
        <mxCell id="SZ2jRNqmg7UzGhxb1-0q-80" value="28" style="rounded=1;whiteSpace=wrap;html=1;fontSize=18;" parent="1" vertex="1">
          <mxGeometry x="290" y="520" width="56" height="40" as="geometry" />
        </mxCell>
        <mxCell id="SZ2jRNqmg7UzGhxb1-0q-81" value="27" style="rounded=1;whiteSpace=wrap;html=1;fontSize=18;" parent="1" vertex="1">
          <mxGeometry x="230" y="520" width="56" height="40" as="geometry" />
        </mxCell>
        <mxCell id="SZ2jRNqmg7UzGhxb1-0q-82" value="25" style="rounded=1;whiteSpace=wrap;html=1;fontSize=18;" parent="1" vertex="1">
          <mxGeometry x="170" y="520" width="56" height="40" as="geometry" />
        </mxCell>
        <mxCell id="SZ2jRNqmg7UzGhxb1-0q-83" value="12" style="rounded=1;whiteSpace=wrap;html=1;fontSize=18;" parent="1" vertex="1">
          <mxGeometry x="90" y="520" width="56" height="40" as="geometry" />
        </mxCell>
        <mxCell id="SZ2jRNqmg7UzGhxb1-0q-84" value="10" style="rounded=1;whiteSpace=wrap;html=1;fontSize=18;" parent="1" vertex="1">
          <mxGeometry x="30" y="520" width="56" height="40" as="geometry" />
        </mxCell>
        <mxCell id="SZ2jRNqmg7UzGhxb1-0q-85" value="35" style="rounded=1;whiteSpace=wrap;html=1;fontSize=18;" parent="1" vertex="1">
          <mxGeometry x="270" y="440" width="56" height="40" as="geometry" />
        </mxCell>
        <mxCell id="SZ2jRNqmg7UzGhxb1-0q-86" value="68" style="rounded=1;whiteSpace=wrap;html=1;fontSize=18;" parent="1" vertex="1">
          <mxGeometry x="710" y="520" width="56" height="40" as="geometry" />
        </mxCell>
        <mxCell id="SZ2jRNqmg7UzGhxb1-0q-87" value="68" style="rounded=1;whiteSpace=wrap;html=1;fontSize=18;" parent="1" vertex="1">
          <mxGeometry x="650" y="520" width="56" height="40" as="geometry" />
        </mxCell>
        <mxCell id="SZ2jRNqmg7UzGhxb1-0q-88" value="72" style="rounded=1;whiteSpace=wrap;html=1;fontSize=18;" parent="1" vertex="1">
          <mxGeometry x="850" y="520" width="56" height="40" as="geometry" />
        </mxCell>
        <mxCell id="SZ2jRNqmg7UzGhxb1-0q-89" value="71" style="rounded=1;whiteSpace=wrap;html=1;fontSize=18;" parent="1" vertex="1">
          <mxGeometry x="790" y="520" width="56" height="40" as="geometry" />
        </mxCell>
        <mxCell id="SZ2jRNqmg7UzGhxb1-0q-90" value="94" style="rounded=1;whiteSpace=wrap;html=1;fontSize=18;" parent="1" vertex="1">
          <mxGeometry x="990" y="520" width="56" height="40" as="geometry" />
        </mxCell>
        <mxCell id="SZ2jRNqmg7UzGhxb1-0q-91" value="93" style="rounded=1;whiteSpace=wrap;html=1;fontSize=18;" parent="1" vertex="1">
          <mxGeometry x="930" y="520" width="56" height="40" as="geometry" />
        </mxCell>
        <mxCell id="SZ2jRNqmg7UzGhxb1-0q-92" value="96" style="rounded=1;whiteSpace=wrap;html=1;fontSize=18;" parent="1" vertex="1">
          <mxGeometry x="1050" y="520" width="56" height="40" as="geometry" />
        </mxCell>
        <mxCell id="SZ2jRNqmg7UzGhxb1-0q-93" style="rounded=0;orthogonalLoop=1;jettySize=auto;html=1;exitX=0;exitY=1;exitDx=0;exitDy=0;entryX=1;entryY=0;entryDx=0;entryDy=0;endArrow=none;endFill=0;" parent="1" source="SZ2jRNqmg7UzGhxb1-0q-72" target="SZ2jRNqmg7UzGhxb1-0q-83" edge="1">
          <mxGeometry relative="1" as="geometry">
            <mxPoint x="181" y="470" as="sourcePoint" />
            <mxPoint x="55" y="510" as="targetPoint" />
          </mxGeometry>
        </mxCell>
        <mxCell id="SZ2jRNqmg7UzGhxb1-0q-94" style="rounded=0;orthogonalLoop=1;jettySize=auto;html=1;entryX=0.5;entryY=0;entryDx=0;entryDy=0;endArrow=none;endFill=0;" parent="1" target="SZ2jRNqmg7UzGhxb1-0q-81" edge="1">
          <mxGeometry relative="1" as="geometry">
            <mxPoint x="258" y="480" as="sourcePoint" />
            <mxPoint x="346" y="460" as="targetPoint" />
          </mxGeometry>
        </mxCell>
        <mxCell id="SZ2jRNqmg7UzGhxb1-0q-95" style="rounded=0;orthogonalLoop=1;jettySize=auto;html=1;exitX=0.5;exitY=0;exitDx=0;exitDy=0;entryX=1;entryY=1;entryDx=0;entryDy=0;endArrow=none;endFill=0;" parent="1" source="SZ2jRNqmg7UzGhxb1-0q-79" target="SZ2jRNqmg7UzGhxb1-0q-85" edge="1">
          <mxGeometry relative="1" as="geometry">
            <mxPoint x="482" y="430" as="sourcePoint" />
            <mxPoint x="356" y="470" as="targetPoint" />
          </mxGeometry>
        </mxCell>
        <mxCell id="SZ2jRNqmg7UzGhxb1-0q-96" style="rounded=0;orthogonalLoop=1;jettySize=auto;html=1;exitX=0.25;exitY=1;exitDx=0;exitDy=0;endArrow=none;endFill=0;entryX=0.375;entryY=-0.017;entryDx=0;entryDy=0;entryPerimeter=0;" parent="1" source="SZ2jRNqmg7UzGhxb1-0q-77" target="SZ2jRNqmg7UzGhxb1-0q-73" edge="1">
          <mxGeometry relative="1" as="geometry">
            <mxPoint x="492" y="440" as="sourcePoint" />
            <mxPoint x="366" y="480" as="targetPoint" />
          </mxGeometry>
        </mxCell>
        <mxCell id="SZ2jRNqmg7UzGhxb1-0q-97" style="rounded=0;orthogonalLoop=1;jettySize=auto;html=1;exitX=0.5;exitY=0;exitDx=0;exitDy=0;entryX=0.75;entryY=1;entryDx=0;entryDy=0;endArrow=none;endFill=0;" parent="1" source="SZ2jRNqmg7UzGhxb1-0q-87" target="SZ2jRNqmg7UzGhxb1-0q-77" edge="1">
          <mxGeometry relative="1" as="geometry">
            <mxPoint x="502" y="450" as="sourcePoint" />
            <mxPoint x="376" y="490" as="targetPoint" />
          </mxGeometry>
        </mxCell>
        <mxCell id="SZ2jRNqmg7UzGhxb1-0q-98" style="rounded=0;orthogonalLoop=1;jettySize=auto;html=1;exitX=0;exitY=0;exitDx=0;exitDy=0;entryX=0.5;entryY=1;entryDx=0;entryDy=0;endArrow=none;endFill=0;" parent="1" source="SZ2jRNqmg7UzGhxb1-0q-89" target="SZ2jRNqmg7UzGhxb1-0q-76" edge="1">
          <mxGeometry relative="1" as="geometry">
            <mxPoint x="512" y="460" as="sourcePoint" />
            <mxPoint x="386" y="500" as="targetPoint" />
          </mxGeometry>
        </mxCell>
        <mxCell id="SZ2jRNqmg7UzGhxb1-0q-99" style="rounded=0;orthogonalLoop=1;jettySize=auto;html=1;exitX=0;exitY=0;exitDx=0;exitDy=0;entryX=1;entryY=1;entryDx=0;entryDy=0;endArrow=none;endFill=0;" parent="1" source="SZ2jRNqmg7UzGhxb1-0q-91" target="SZ2jRNqmg7UzGhxb1-0q-75" edge="1">
          <mxGeometry relative="1" as="geometry">
            <mxPoint x="926" y="420" as="sourcePoint" />
            <mxPoint x="800" y="460" as="targetPoint" />
          </mxGeometry>
        </mxCell>
        <mxCell id="SZ2jRNqmg7UzGhxb1-0q-100" style="rounded=0;orthogonalLoop=1;jettySize=auto;html=1;exitX=0.75;exitY=1;exitDx=0;exitDy=0;entryX=0.25;entryY=0;entryDx=0;entryDy=0;endArrow=none;endFill=0;" parent="1" source="SZ2jRNqmg7UzGhxb1-0q-71" target="SZ2jRNqmg7UzGhxb1-0q-77" edge="1">
          <mxGeometry relative="1" as="geometry">
            <mxPoint x="462" y="410" as="sourcePoint" />
            <mxPoint x="336" y="450" as="targetPoint" />
          </mxGeometry>
        </mxCell>
        <mxCell id="SZ2jRNqmg7UzGhxb1-0q-101" value="4阶B树" style="text;html=1;align=center;verticalAlign=middle;whiteSpace=wrap;rounded=0;fontSize=18;" parent="1" vertex="1">
          <mxGeometry x="166" y="360" width="84" height="30" as="geometry" />
        </mxCell>
        <mxCell id="SZ2jRNqmg7UzGhxb1-0q-102" value="根节点" style="text;html=1;align=center;verticalAlign=middle;whiteSpace=wrap;rounded=0;fontSize=18;fontColor=#FF0000;" parent="1" vertex="1">
          <mxGeometry x="490" y="360" width="84" height="30" as="geometry" />
        </mxCell>
        <mxCell id="SZ2jRNqmg7UzGhxb1-0q-103" value="分支节点" style="text;html=1;align=center;verticalAlign=middle;whiteSpace=wrap;rounded=0;fontSize=18;fontColor=#FF0000;" parent="1" vertex="1">
          <mxGeometry x="826" y="440" width="84" height="30" as="geometry" />
        </mxCell>
        <mxCell id="SZ2jRNqmg7UzGhxb1-0q-104" value="叶子节点" style="text;html=1;align=center;verticalAlign=middle;whiteSpace=wrap;rounded=0;fontSize=18;fontColor=#FF0000;" parent="1" vertex="1">
          <mxGeometry x="16" y="480" width="84" height="30" as="geometry" />
        </mxCell>
        <mxCell id="mWvN6TMobklK4cbza-5g-2" value="" style="rounded=0;whiteSpace=wrap;html=1;" parent="1" vertex="1">
          <mxGeometry x="320" y="760" width="380" height="40" as="geometry" />
        </mxCell>
        <mxCell id="mWvN6TMobklK4cbza-5g-6" value="" style="group;fillColor=#fff2cc;strokeColor=#d6b656;" parent="1" vertex="1" connectable="0">
          <mxGeometry x="360" y="760" width="60" height="80" as="geometry" />
        </mxCell>
        <mxCell id="mWvN6TMobklK4cbza-5g-4" value="15" style="rounded=0;whiteSpace=wrap;html=1;fillColor=#d5e8d4;strokeColor=#82b366;" parent="mWvN6TMobklK4cbza-5g-6" vertex="1">
          <mxGeometry width="60" height="40" as="geometry" />
        </mxCell>
        <mxCell id="mWvN6TMobklK4cbza-5g-5" value="data" style="rounded=0;whiteSpace=wrap;html=1;fillColor=#fff2cc;strokeColor=#d6b656;" parent="mWvN6TMobklK4cbza-5g-6" vertex="1">
          <mxGeometry y="40" width="60" height="40" as="geometry" />
        </mxCell>
        <mxCell id="mWvN6TMobklK4cbza-5g-7" value="" style="group;fillColor=#fff2cc;strokeColor=#d6b656;" parent="1" vertex="1" connectable="0">
          <mxGeometry x="480" y="760" width="60" height="80" as="geometry" />
        </mxCell>
        <mxCell id="mWvN6TMobklK4cbza-5g-8" value="56" style="rounded=0;whiteSpace=wrap;html=1;fillColor=#d5e8d4;strokeColor=#82b366;" parent="mWvN6TMobklK4cbza-5g-7" vertex="1">
          <mxGeometry width="60" height="40" as="geometry" />
        </mxCell>
        <mxCell id="mWvN6TMobklK4cbza-5g-9" value="data" style="rounded=0;whiteSpace=wrap;html=1;fillColor=#fff2cc;strokeColor=#d6b656;" parent="mWvN6TMobklK4cbza-5g-7" vertex="1">
          <mxGeometry y="40" width="60" height="40" as="geometry" />
        </mxCell>
        <mxCell id="mWvN6TMobklK4cbza-5g-10" value="" style="group;fillColor=#fff2cc;strokeColor=#d6b656;" parent="1" vertex="1" connectable="0">
          <mxGeometry x="600" y="760" width="60" height="80" as="geometry" />
        </mxCell>
        <mxCell id="mWvN6TMobklK4cbza-5g-11" value="77" style="rounded=0;whiteSpace=wrap;html=1;fillColor=#d5e8d4;strokeColor=#82b366;" parent="mWvN6TMobklK4cbza-5g-10" vertex="1">
          <mxGeometry width="60" height="40" as="geometry" />
        </mxCell>
        <mxCell id="mWvN6TMobklK4cbza-5g-12" value="data" style="rounded=0;whiteSpace=wrap;html=1;fillColor=#fff2cc;strokeColor=#d6b656;" parent="mWvN6TMobklK4cbza-5g-10" vertex="1">
          <mxGeometry y="40" width="60" height="40" as="geometry" />
        </mxCell>
        <mxCell id="mWvN6TMobklK4cbza-5g-22" value="... ..." style="rounded=0;whiteSpace=wrap;html=1;" parent="1" vertex="1">
          <mxGeometry x="190" y="880" width="110" height="40" as="geometry" />
        </mxCell>
        <mxCell id="mWvN6TMobklK4cbza-5g-23" value="" style="endArrow=none;html=1;rounded=0;entryX=0.061;entryY=0.967;entryDx=0;entryDy=0;entryPerimeter=0;exitX=0.5;exitY=0;exitDx=0;exitDy=0;" parent="1" source="mWvN6TMobklK4cbza-5g-22" target="mWvN6TMobklK4cbza-5g-2" edge="1">
          <mxGeometry width="50" height="50" relative="1" as="geometry">
            <mxPoint x="230" y="860" as="sourcePoint" />
            <mxPoint x="280" y="810" as="targetPoint" />
          </mxGeometry>
        </mxCell>
        <mxCell id="mWvN6TMobklK4cbza-5g-24" value="" style="endArrow=none;html=1;rounded=0;entryX=0.338;entryY=1.017;entryDx=0;entryDy=0;entryPerimeter=0;exitX=0.5;exitY=0;exitDx=0;exitDy=0;" parent="1" source="mWvN6TMobklK4cbza-5g-13" target="mWvN6TMobklK4cbza-5g-2" edge="1">
          <mxGeometry width="50" height="50" relative="1" as="geometry">
            <mxPoint x="275" y="890" as="sourcePoint" />
            <mxPoint x="353" y="809" as="targetPoint" />
          </mxGeometry>
        </mxCell>
        <mxCell id="mWvN6TMobklK4cbza-5g-25" value="" style="group" parent="1" vertex="1" connectable="0">
          <mxGeometry x="320" y="880" width="360" height="80" as="geometry" />
        </mxCell>
        <mxCell id="mWvN6TMobklK4cbza-5g-13" value="" style="rounded=0;whiteSpace=wrap;html=1;" parent="mWvN6TMobklK4cbza-5g-25" vertex="1">
          <mxGeometry width="360" height="40" as="geometry" />
        </mxCell>
        <mxCell id="mWvN6TMobklK4cbza-5g-14" value="" style="group;fillColor=#fff2cc;strokeColor=#d6b656;" parent="mWvN6TMobklK4cbza-5g-25" vertex="1" connectable="0">
          <mxGeometry x="84" width="60" height="80" as="geometry" />
        </mxCell>
        <mxCell id="mWvN6TMobklK4cbza-5g-15" value="20" style="rounded=0;whiteSpace=wrap;html=1;fillColor=#d5e8d4;strokeColor=#82b366;" parent="mWvN6TMobklK4cbza-5g-14" vertex="1">
          <mxGeometry width="60" height="40" as="geometry" />
        </mxCell>
        <mxCell id="mWvN6TMobklK4cbza-5g-16" value="data" style="rounded=0;whiteSpace=wrap;html=1;fillColor=#fff2cc;strokeColor=#d6b656;" parent="mWvN6TMobklK4cbza-5g-14" vertex="1">
          <mxGeometry y="40" width="60" height="40" as="geometry" />
        </mxCell>
        <mxCell id="mWvN6TMobklK4cbza-5g-19" value="" style="group;fillColor=#fff2cc;strokeColor=#d6b656;" parent="mWvN6TMobklK4cbza-5g-25" vertex="1" connectable="0">
          <mxGeometry x="210" width="60" height="80" as="geometry" />
        </mxCell>
        <mxCell id="mWvN6TMobklK4cbza-5g-20" value="49" style="rounded=0;whiteSpace=wrap;html=1;fillColor=#d5e8d4;strokeColor=#82b366;" parent="mWvN6TMobklK4cbza-5g-19" vertex="1">
          <mxGeometry width="60" height="40" as="geometry" />
        </mxCell>
        <mxCell id="mWvN6TMobklK4cbza-5g-21" value="data" style="rounded=0;whiteSpace=wrap;html=1;fillColor=#fff2cc;strokeColor=#d6b656;" parent="mWvN6TMobklK4cbza-5g-19" vertex="1">
          <mxGeometry y="40" width="60" height="40" as="geometry" />
        </mxCell>
        <mxCell id="mWvN6TMobklK4cbza-5g-26" value="B树存储数据的特点：&lt;div style=&quot;font-size: 16px;&quot;&gt;&lt;br style=&quot;font-size: 16px;&quot;&gt;&lt;div style=&quot;font-size: 16px;&quot;&gt;1.索引值和data数据分布在整棵树中&lt;/div&gt;&lt;div style=&quot;font-size: 16px;&quot;&gt;2.白色块部分是指针，存储着子节点的地址信息&lt;/div&gt;&lt;div style=&quot;font-size: 16px;&quot;&gt;3.每个节点可以存放多个索引值以及对应的data数据&lt;/div&gt;&lt;div style=&quot;font-size: 16px;&quot;&gt;4.树节点中的多个索引值从左到右升序排序&lt;/div&gt;&lt;/div&gt;" style="text;html=1;align=left;verticalAlign=top;whiteSpace=wrap;rounded=0;fontSize=16;" parent="1" vertex="1">
          <mxGeometry x="726" y="760" width="414" height="130" as="geometry" />
        </mxCell>
        <mxCell id="mWvN6TMobklK4cbza-5g-38" style="rounded=0;orthogonalLoop=1;jettySize=auto;html=1;exitX=0.5;exitY=1;exitDx=0;exitDy=0;entryX=0.5;entryY=0;entryDx=0;entryDy=0;endArrow=none;endFill=0;" parent="1" source="mWvN6TMobklK4cbza-5g-28" target="mWvN6TMobklK4cbza-5g-30" edge="1">
          <mxGeometry relative="1" as="geometry" />
        </mxCell>
        <mxCell id="mWvN6TMobklK4cbza-5g-39" style="rounded=0;orthogonalLoop=1;jettySize=auto;html=1;exitX=0.5;exitY=1;exitDx=0;exitDy=0;endArrow=none;endFill=0;entryX=0.5;entryY=0;entryDx=0;entryDy=0;" parent="1" source="mWvN6TMobklK4cbza-5g-28" target="mWvN6TMobklK4cbza-5g-31" edge="1">
          <mxGeometry relative="1" as="geometry" />
        </mxCell>
        <mxCell id="mWvN6TMobklK4cbza-5g-28" value="0012" style="rounded=0;whiteSpace=wrap;html=1;fillColor=#d5e8d4;strokeColor=#82b366;" parent="1" vertex="1">
          <mxGeometry x="430" y="1040" width="60" height="40" as="geometry" />
        </mxCell>
        <mxCell id="mWvN6TMobklK4cbza-5g-40" style="rounded=0;orthogonalLoop=1;jettySize=auto;html=1;exitX=0.5;exitY=1;exitDx=0;exitDy=0;endArrow=none;endFill=0;" parent="1" source="mWvN6TMobklK4cbza-5g-30" target="mWvN6TMobklK4cbza-5g-33" edge="1">
          <mxGeometry relative="1" as="geometry" />
        </mxCell>
        <mxCell id="mWvN6TMobklK4cbza-5g-41" style="rounded=0;orthogonalLoop=1;jettySize=auto;html=1;exitX=0.5;exitY=1;exitDx=0;exitDy=0;startArrow=none;startFill=0;endArrow=none;endFill=0;" parent="1" source="mWvN6TMobklK4cbza-5g-30" target="mWvN6TMobklK4cbza-5g-34" edge="1">
          <mxGeometry relative="1" as="geometry" />
        </mxCell>
        <mxCell id="mWvN6TMobklK4cbza-5g-30" value="0003" style="rounded=0;whiteSpace=wrap;html=1;fillColor=#d5e8d4;strokeColor=#82b366;" parent="1" vertex="1">
          <mxGeometry x="370" y="1110" width="60" height="40" as="geometry" />
        </mxCell>
        <mxCell id="mWvN6TMobklK4cbza-5g-42" style="rounded=0;orthogonalLoop=1;jettySize=auto;html=1;exitX=0.5;exitY=1;exitDx=0;exitDy=0;entryX=0.5;entryY=0;entryDx=0;entryDy=0;endArrow=none;endFill=0;" parent="1" source="mWvN6TMobklK4cbza-5g-31" target="mWvN6TMobklK4cbza-5g-35" edge="1">
          <mxGeometry relative="1" as="geometry" />
        </mxCell>
        <mxCell id="mWvN6TMobklK4cbza-5g-31" value="0032" style="rounded=0;whiteSpace=wrap;html=1;fillColor=#d5e8d4;strokeColor=#82b366;" parent="1" vertex="1">
          <mxGeometry x="498" y="1110" width="60" height="40" as="geometry" />
        </mxCell>
        <mxCell id="mWvN6TMobklK4cbza-5g-43" style="rounded=0;orthogonalLoop=1;jettySize=auto;html=1;exitX=0;exitY=1;exitDx=0;exitDy=0;entryX=0.5;entryY=0;entryDx=0;entryDy=0;endArrow=none;endFill=0;" parent="1" source="mWvN6TMobklK4cbza-5g-32" target="mWvN6TMobklK4cbza-5g-36" edge="1">
          <mxGeometry relative="1" as="geometry" />
        </mxCell>
        <mxCell id="mWvN6TMobklK4cbza-5g-44" style="rounded=0;orthogonalLoop=1;jettySize=auto;html=1;exitX=0.75;exitY=1;exitDx=0;exitDy=0;entryX=0.5;entryY=0;entryDx=0;entryDy=0;endArrow=none;endFill=0;" parent="1" source="mWvN6TMobklK4cbza-5g-32" target="mWvN6TMobklK4cbza-5g-37" edge="1">
          <mxGeometry relative="1" as="geometry" />
        </mxCell>
        <mxCell id="mWvN6TMobklK4cbza-5g-32" value="0065" style="rounded=0;whiteSpace=wrap;html=1;fillColor=#d5e8d4;strokeColor=#82b366;" parent="1" vertex="1">
          <mxGeometry x="558" y="1110" width="60" height="40" as="geometry" />
        </mxCell>
        <mxCell id="mWvN6TMobklK4cbza-5g-33" value="0001" style="rounded=0;whiteSpace=wrap;html=1;fillColor=#d5e8d4;strokeColor=#82b366;" parent="1" vertex="1">
          <mxGeometry x="338" y="1180" width="60" height="40" as="geometry" />
        </mxCell>
        <mxCell id="mWvN6TMobklK4cbza-5g-34" value="0009" style="rounded=0;whiteSpace=wrap;html=1;fillColor=#d5e8d4;strokeColor=#82b366;" parent="1" vertex="1">
          <mxGeometry x="398" y="1180" width="60" height="40" as="geometry" />
        </mxCell>
        <mxCell id="mWvN6TMobklK4cbza-5g-35" value="0021" style="rounded=0;whiteSpace=wrap;html=1;fillColor=#d5e8d4;strokeColor=#82b366;" parent="1" vertex="1">
          <mxGeometry x="480" y="1180" width="60" height="40" as="geometry" />
        </mxCell>
        <mxCell id="mWvN6TMobklK4cbza-5g-36" value="0054" style="rounded=0;whiteSpace=wrap;html=1;fillColor=#d5e8d4;strokeColor=#82b366;" parent="1" vertex="1">
          <mxGeometry x="540" y="1180" width="60" height="40" as="geometry" />
        </mxCell>
        <mxCell id="mWvN6TMobklK4cbza-5g-37" value="0066" style="rounded=0;whiteSpace=wrap;html=1;fillColor=#d5e8d4;strokeColor=#82b366;" parent="1" vertex="1">
          <mxGeometry x="600" y="1180" width="60" height="40" as="geometry" />
        </mxCell>
        <mxCell id="mWvN6TMobklK4cbza-5g-45" value="一次IO" style="text;html=1;align=center;verticalAlign=middle;whiteSpace=wrap;rounded=0;" parent="1" vertex="1">
          <mxGeometry x="486" y="1040" width="60" height="30" as="geometry" />
        </mxCell>
        <mxCell id="mWvN6TMobklK4cbza-5g-46" value="一次IO" style="text;html=1;align=center;verticalAlign=middle;whiteSpace=wrap;rounded=0;" parent="1" vertex="1">
          <mxGeometry x="610" y="1110" width="60" height="30" as="geometry" />
        </mxCell>
        <mxCell id="mWvN6TMobklK4cbza-5g-47" value="一次IO" style="text;html=1;align=center;verticalAlign=middle;whiteSpace=wrap;rounded=0;" parent="1" vertex="1">
          <mxGeometry x="476" y="1210" width="60" height="30" as="geometry" />
        </mxCell>
        <mxCell id="dCrbKMnSFliLUGBb4Fj3-8" style="rounded=0;orthogonalLoop=1;jettySize=auto;html=1;exitX=0.5;exitY=1;exitDx=0;exitDy=0;entryX=0.5;entryY=0;entryDx=0;entryDy=0;endArrow=none;endFill=0;fillColor=#f8cecc;strokeColor=#b85450;" parent="1" source="dCrbKMnSFliLUGBb4Fj3-1" target="dCrbKMnSFliLUGBb4Fj3-2" edge="1">
          <mxGeometry relative="1" as="geometry" />
        </mxCell>
        <mxCell id="dCrbKMnSFliLUGBb4Fj3-9" style="rounded=0;orthogonalLoop=1;jettySize=auto;html=1;exitX=0.5;exitY=1;exitDx=0;exitDy=0;entryX=0.5;entryY=0;entryDx=0;entryDy=0;endArrow=none;endFill=0;fillColor=#f8cecc;strokeColor=#b85450;" parent="1" source="dCrbKMnSFliLUGBb4Fj3-1" target="dCrbKMnSFliLUGBb4Fj3-6" edge="1">
          <mxGeometry relative="1" as="geometry" />
        </mxCell>
        <mxCell id="dCrbKMnSFliLUGBb4Fj3-1" value="0018" style="rounded=0;whiteSpace=wrap;html=1;fillColor=#d5e8d4;strokeColor=#82b366;" parent="1" vertex="1">
          <mxGeometry x="440" y="1290" width="60" height="40" as="geometry" />
        </mxCell>
        <mxCell id="dCrbKMnSFliLUGBb4Fj3-10" style="rounded=0;orthogonalLoop=1;jettySize=auto;html=1;exitX=0.5;exitY=1;exitDx=0;exitDy=0;entryX=0.5;entryY=0;entryDx=0;entryDy=0;endArrow=none;endFill=0;fillColor=#f8cecc;strokeColor=#b85450;" parent="1" source="dCrbKMnSFliLUGBb4Fj3-2" target="dCrbKMnSFliLUGBb4Fj3-3" edge="1">
          <mxGeometry relative="1" as="geometry" />
        </mxCell>
        <mxCell id="dCrbKMnSFliLUGBb4Fj3-11" style="rounded=0;orthogonalLoop=1;jettySize=auto;html=1;exitX=0.5;exitY=1;exitDx=0;exitDy=0;endArrow=none;endFill=0;fillColor=#f8cecc;strokeColor=#b85450;" parent="1" source="dCrbKMnSFliLUGBb4Fj3-2" target="dCrbKMnSFliLUGBb4Fj3-5" edge="1">
          <mxGeometry relative="1" as="geometry" />
        </mxCell>
        <mxCell id="dCrbKMnSFliLUGBb4Fj3-2" value="0008" style="rounded=0;whiteSpace=wrap;html=1;fillColor=#d5e8d4;strokeColor=#82b366;" parent="1" vertex="1">
          <mxGeometry x="368" y="1360" width="60" height="40" as="geometry" />
        </mxCell>
        <mxCell id="dCrbKMnSFliLUGBb4Fj3-3" value="0005" style="rounded=0;whiteSpace=wrap;html=1;fillColor=#d5e8d4;strokeColor=#82b366;" parent="1" vertex="1">
          <mxGeometry x="308" y="1440" width="60" height="40" as="geometry" />
        </mxCell>
        <mxCell id="dCrbKMnSFliLUGBb4Fj3-4" value="0020" style="rounded=0;whiteSpace=wrap;html=1;fillColor=#d5e8d4;strokeColor=#82b366;" parent="1" vertex="1">
          <mxGeometry x="486" y="1440" width="60" height="40" as="geometry" />
        </mxCell>
        <mxCell id="dCrbKMnSFliLUGBb4Fj3-5" value="" style="rounded=0;whiteSpace=wrap;html=1;fillColor=#d5e8d4;strokeColor=#82b366;" parent="1" vertex="1">
          <mxGeometry x="388" y="1440" width="82" height="40" as="geometry" />
        </mxCell>
        <mxCell id="dCrbKMnSFliLUGBb4Fj3-12" style="rounded=0;orthogonalLoop=1;jettySize=auto;html=1;exitX=0.5;exitY=1;exitDx=0;exitDy=0;endArrow=none;endFill=0;fillColor=#f8cecc;strokeColor=#b85450;" parent="1" source="dCrbKMnSFliLUGBb4Fj3-6" target="dCrbKMnSFliLUGBb4Fj3-4" edge="1">
          <mxGeometry relative="1" as="geometry" />
        </mxCell>
        <mxCell id="dCrbKMnSFliLUGBb4Fj3-13" style="rounded=0;orthogonalLoop=1;jettySize=auto;html=1;exitX=0.5;exitY=1;exitDx=0;exitDy=0;entryX=0.5;entryY=0;entryDx=0;entryDy=0;endArrow=none;endFill=0;" parent="1" source="dCrbKMnSFliLUGBb4Fj3-6" target="dCrbKMnSFliLUGBb4Fj3-7" edge="1">
          <mxGeometry relative="1" as="geometry" />
        </mxCell>
        <mxCell id="dCrbKMnSFliLUGBb4Fj3-6" value="0025" style="rounded=0;whiteSpace=wrap;html=1;fillColor=#d5e8d4;strokeColor=#82b366;" parent="1" vertex="1">
          <mxGeometry x="514" y="1360" width="60" height="40" as="geometry" />
        </mxCell>
        <mxCell id="dCrbKMnSFliLUGBb4Fj3-7" value="0030" style="rounded=0;whiteSpace=wrap;html=1;fillColor=#d5e8d4;strokeColor=#82b366;" parent="1" vertex="1">
          <mxGeometry x="574" y="1440" width="60" height="40" as="geometry" />
        </mxCell>
        <mxCell id="dCrbKMnSFliLUGBb4Fj3-14" value="0010" style="text;html=1;align=center;verticalAlign=middle;whiteSpace=wrap;rounded=0;" parent="1" vertex="1">
          <mxGeometry x="380" y="1445" width="60" height="30" as="geometry" />
        </mxCell>
        <mxCell id="dCrbKMnSFliLUGBb4Fj3-15" value="0015" style="text;html=1;align=center;verticalAlign=middle;whiteSpace=wrap;rounded=0;" parent="1" vertex="1">
          <mxGeometry x="420" y="1445" width="60" height="30" as="geometry" />
        </mxCell>
        <mxCell id="dCrbKMnSFliLUGBb4Fj3-16" value="如查询5~20的数据" style="text;html=1;align=center;verticalAlign=middle;whiteSpace=wrap;rounded=0;fillColor=#f8cecc;strokeColor=#b85450;" parent="1" vertex="1">
          <mxGeometry x="526" y="1310" width="114" height="30" as="geometry" />
        </mxCell>
      </root>
    </mxGraphModel>
  </diagram>
  <diagram id="9OY5zlCu_kXZOscGq3A8" name="B+树">
    <mxGraphModel dx="1621" dy="705" grid="1" gridSize="10" guides="1" tooltips="1" connect="1" arrows="1" fold="1" page="0" pageScale="1" pageWidth="827" pageHeight="1169" math="0" shadow="0">
      <root>
        <mxCell id="0" />
        <mxCell id="1" parent="0" />
        <mxCell id="NRXpPPa1o-SLuwvgDlTt-1" value="" style="rounded=0;whiteSpace=wrap;html=1;dashed=1;" vertex="1" parent="1">
          <mxGeometry x="280" y="80" width="360" height="130" as="geometry" />
        </mxCell>
        <mxCell id="NRXpPPa1o-SLuwvgDlTt-5" style="rounded=0;orthogonalLoop=1;jettySize=auto;html=1;exitX=0.25;exitY=1;exitDx=0;exitDy=0;entryX=0.5;entryY=0;entryDx=0;entryDy=0;" edge="1" parent="1" source="NRXpPPa1o-SLuwvgDlTt-2" target="NRXpPPa1o-SLuwvgDlTt-3">
          <mxGeometry relative="1" as="geometry" />
        </mxCell>
        <mxCell id="NRXpPPa1o-SLuwvgDlTt-6" style="rounded=0;orthogonalLoop=1;jettySize=auto;html=1;exitX=0.75;exitY=1;exitDx=0;exitDy=0;entryX=0.5;entryY=0;entryDx=0;entryDy=0;" edge="1" parent="1" source="NRXpPPa1o-SLuwvgDlTt-2" target="NRXpPPa1o-SLuwvgDlTt-4">
          <mxGeometry relative="1" as="geometry" />
        </mxCell>
        <mxCell id="NRXpPPa1o-SLuwvgDlTt-2" value="31&amp;nbsp; &amp;nbsp; &amp;nbsp;52" style="rounded=0;whiteSpace=wrap;html=1;" vertex="1" parent="1">
          <mxGeometry x="407" y="90" width="106" height="40" as="geometry" />
        </mxCell>
        <mxCell id="NRXpPPa1o-SLuwvgDlTt-3" value="15&amp;nbsp; 22&amp;nbsp; 31" style="rounded=0;whiteSpace=wrap;html=1;" vertex="1" parent="1">
          <mxGeometry x="301" y="160" width="106" height="40" as="geometry" />
        </mxCell>
        <mxCell id="NRXpPPa1o-SLuwvgDlTt-4" value="47&amp;nbsp; &amp;nbsp;52" style="rounded=0;whiteSpace=wrap;html=1;" vertex="1" parent="1">
          <mxGeometry x="513" y="160" width="106" height="40" as="geometry" />
        </mxCell>
        <mxCell id="NRXpPPa1o-SLuwvgDlTt-7" value="索引部分" style="text;html=1;align=center;verticalAlign=middle;whiteSpace=wrap;rounded=0;" vertex="1" parent="1">
          <mxGeometry x="650" y="90" width="60" height="30" as="geometry" />
        </mxCell>
        <mxCell id="NRXpPPa1o-SLuwvgDlTt-9" value="" style="rounded=0;whiteSpace=wrap;html=1;dashed=1;" vertex="1" parent="1">
          <mxGeometry x="160" y="240" width="650" height="140" as="geometry" />
        </mxCell>
        <mxCell id="NRXpPPa1o-SLuwvgDlTt-31" style="rounded=0;orthogonalLoop=1;jettySize=auto;html=1;exitX=0.25;exitY=1;exitDx=0;exitDy=0;entryX=0.5;entryY=0;entryDx=0;entryDy=0;" edge="1" parent="1" source="NRXpPPa1o-SLuwvgDlTt-10" target="NRXpPPa1o-SLuwvgDlTt-16">
          <mxGeometry relative="1" as="geometry" />
        </mxCell>
        <mxCell id="NRXpPPa1o-SLuwvgDlTt-32" style="edgeStyle=orthogonalEdgeStyle;rounded=0;orthogonalLoop=1;jettySize=auto;html=1;exitX=1;exitY=0.5;exitDx=0;exitDy=0;" edge="1" parent="1" source="NRXpPPa1o-SLuwvgDlTt-10" target="NRXpPPa1o-SLuwvgDlTt-11">
          <mxGeometry relative="1" as="geometry" />
        </mxCell>
        <mxCell id="NRXpPPa1o-SLuwvgDlTt-10" value="10&amp;nbsp; 12&amp;nbsp; 15" style="rounded=0;whiteSpace=wrap;html=1;" vertex="1" parent="1">
          <mxGeometry x="174" y="250" width="106" height="40" as="geometry" />
        </mxCell>
        <mxCell id="NRXpPPa1o-SLuwvgDlTt-33" style="edgeStyle=orthogonalEdgeStyle;rounded=0;orthogonalLoop=1;jettySize=auto;html=1;exitX=1;exitY=0.5;exitDx=0;exitDy=0;entryX=0;entryY=0.5;entryDx=0;entryDy=0;" edge="1" parent="1" source="NRXpPPa1o-SLuwvgDlTt-11" target="NRXpPPa1o-SLuwvgDlTt-12">
          <mxGeometry relative="1" as="geometry" />
        </mxCell>
        <mxCell id="NRXpPPa1o-SLuwvgDlTt-11" value="18 19 20 22" style="rounded=0;whiteSpace=wrap;html=1;" vertex="1" parent="1">
          <mxGeometry x="301" y="250" width="106" height="40" as="geometry" />
        </mxCell>
        <mxCell id="NRXpPPa1o-SLuwvgDlTt-34" style="edgeStyle=orthogonalEdgeStyle;rounded=0;orthogonalLoop=1;jettySize=auto;html=1;exitX=1;exitY=0.5;exitDx=0;exitDy=0;entryX=0;entryY=0.5;entryDx=0;entryDy=0;" edge="1" parent="1" source="NRXpPPa1o-SLuwvgDlTt-12" target="NRXpPPa1o-SLuwvgDlTt-13">
          <mxGeometry relative="1" as="geometry" />
        </mxCell>
        <mxCell id="NRXpPPa1o-SLuwvgDlTt-12" value="23 30 31" style="rounded=0;whiteSpace=wrap;html=1;" vertex="1" parent="1">
          <mxGeometry x="430" y="250" width="106" height="40" as="geometry" />
        </mxCell>
        <mxCell id="NRXpPPa1o-SLuwvgDlTt-35" style="edgeStyle=orthogonalEdgeStyle;rounded=0;orthogonalLoop=1;jettySize=auto;html=1;exitX=1;exitY=0.5;exitDx=0;exitDy=0;" edge="1" parent="1" source="NRXpPPa1o-SLuwvgDlTt-13" target="NRXpPPa1o-SLuwvgDlTt-14">
          <mxGeometry relative="1" as="geometry" />
        </mxCell>
        <mxCell id="NRXpPPa1o-SLuwvgDlTt-13" value="33 45 47" style="rounded=0;whiteSpace=wrap;html=1;" vertex="1" parent="1">
          <mxGeometry x="560" y="250" width="106" height="40" as="geometry" />
        </mxCell>
        <mxCell id="NRXpPPa1o-SLuwvgDlTt-14" value="48 50 52" style="rounded=0;whiteSpace=wrap;html=1;" vertex="1" parent="1">
          <mxGeometry x="690" y="250" width="106" height="40" as="geometry" />
        </mxCell>
        <mxCell id="NRXpPPa1o-SLuwvgDlTt-15" value="叶子节点层：全部的关键字" style="text;html=1;align=center;verticalAlign=middle;whiteSpace=wrap;rounded=0;" vertex="1" parent="1">
          <mxGeometry x="698" y="310" width="90" height="30" as="geometry" />
        </mxCell>
        <mxCell id="NRXpPPa1o-SLuwvgDlTt-16" value="张&lt;br&gt;三" style="rounded=0;whiteSpace=wrap;html=1;" vertex="1" parent="1">
          <mxGeometry x="174" y="305" width="26" height="65" as="geometry" />
        </mxCell>
        <mxCell id="NRXpPPa1o-SLuwvgDlTt-17" value="" style="rounded=0;whiteSpace=wrap;html=1;" vertex="1" parent="1">
          <mxGeometry x="214" y="305" width="26" height="65" as="geometry" />
        </mxCell>
        <mxCell id="NRXpPPa1o-SLuwvgDlTt-18" value="" style="rounded=0;whiteSpace=wrap;html=1;" vertex="1" parent="1">
          <mxGeometry x="250" y="305" width="26" height="65" as="geometry" />
        </mxCell>
        <mxCell id="NRXpPPa1o-SLuwvgDlTt-19" value="" style="rounded=0;whiteSpace=wrap;html=1;" vertex="1" parent="1">
          <mxGeometry x="300" y="305" width="26" height="65" as="geometry" />
        </mxCell>
        <mxCell id="NRXpPPa1o-SLuwvgDlTt-20" value="" style="rounded=0;whiteSpace=wrap;html=1;" vertex="1" parent="1">
          <mxGeometry x="330" y="305" width="26" height="65" as="geometry" />
        </mxCell>
        <mxCell id="NRXpPPa1o-SLuwvgDlTt-21" value="" style="rounded=0;whiteSpace=wrap;html=1;" vertex="1" parent="1">
          <mxGeometry x="360" y="305" width="26" height="65" as="geometry" />
        </mxCell>
        <mxCell id="NRXpPPa1o-SLuwvgDlTt-22" value="" style="rounded=0;whiteSpace=wrap;html=1;" vertex="1" parent="1">
          <mxGeometry x="388" y="305" width="26" height="65" as="geometry" />
        </mxCell>
        <mxCell id="NRXpPPa1o-SLuwvgDlTt-23" value="" style="rounded=0;whiteSpace=wrap;html=1;" vertex="1" parent="1">
          <mxGeometry x="447" y="305" width="26" height="65" as="geometry" />
        </mxCell>
        <mxCell id="NRXpPPa1o-SLuwvgDlTt-24" value="" style="rounded=0;whiteSpace=wrap;html=1;" vertex="1" parent="1">
          <mxGeometry x="480" y="305" width="26" height="65" as="geometry" />
        </mxCell>
        <mxCell id="NRXpPPa1o-SLuwvgDlTt-25" value="" style="rounded=0;whiteSpace=wrap;html=1;" vertex="1" parent="1">
          <mxGeometry x="513" y="305" width="26" height="65" as="geometry" />
        </mxCell>
        <mxCell id="NRXpPPa1o-SLuwvgDlTt-26" style="rounded=0;orthogonalLoop=1;jettySize=auto;html=1;exitX=0.25;exitY=1;exitDx=0;exitDy=0;entryX=0.5;entryY=0;entryDx=0;entryDy=0;" edge="1" parent="1" source="NRXpPPa1o-SLuwvgDlTt-3" target="NRXpPPa1o-SLuwvgDlTt-10">
          <mxGeometry relative="1" as="geometry" />
        </mxCell>
        <mxCell id="NRXpPPa1o-SLuwvgDlTt-27" style="edgeStyle=orthogonalEdgeStyle;rounded=0;orthogonalLoop=1;jettySize=auto;html=1;exitX=0.5;exitY=1;exitDx=0;exitDy=0;entryX=0.5;entryY=0;entryDx=0;entryDy=0;" edge="1" parent="1" source="NRXpPPa1o-SLuwvgDlTt-3" target="NRXpPPa1o-SLuwvgDlTt-11">
          <mxGeometry relative="1" as="geometry" />
        </mxCell>
        <mxCell id="NRXpPPa1o-SLuwvgDlTt-28" style="rounded=0;orthogonalLoop=1;jettySize=auto;html=1;exitX=0.75;exitY=1;exitDx=0;exitDy=0;entryX=0.5;entryY=0;entryDx=0;entryDy=0;" edge="1" parent="1" source="NRXpPPa1o-SLuwvgDlTt-3" target="NRXpPPa1o-SLuwvgDlTt-12">
          <mxGeometry relative="1" as="geometry" />
        </mxCell>
        <mxCell id="NRXpPPa1o-SLuwvgDlTt-29" style="rounded=0;orthogonalLoop=1;jettySize=auto;html=1;entryX=0.25;entryY=0;entryDx=0;entryDy=0;" edge="1" parent="1" target="NRXpPPa1o-SLuwvgDlTt-13">
          <mxGeometry relative="1" as="geometry">
            <mxPoint x="566" y="200" as="sourcePoint" />
          </mxGeometry>
        </mxCell>
        <mxCell id="NRXpPPa1o-SLuwvgDlTt-30" style="rounded=0;orthogonalLoop=1;jettySize=auto;html=1;exitX=0.75;exitY=1;exitDx=0;exitDy=0;" edge="1" parent="1" source="NRXpPPa1o-SLuwvgDlTt-4" target="NRXpPPa1o-SLuwvgDlTt-14">
          <mxGeometry relative="1" as="geometry" />
        </mxCell>
        <mxCell id="NRXpPPa1o-SLuwvgDlTt-46" value="" style="group" vertex="1" connectable="0" parent="1">
          <mxGeometry x="360" y="440" width="180" height="80" as="geometry" />
        </mxCell>
        <mxCell id="NRXpPPa1o-SLuwvgDlTt-36" value="" style="rounded=0;whiteSpace=wrap;html=1;" vertex="1" parent="NRXpPPa1o-SLuwvgDlTt-46">
          <mxGeometry width="180" height="80" as="geometry" />
        </mxCell>
        <mxCell id="NRXpPPa1o-SLuwvgDlTt-37" value="页38" style="text;html=1;align=center;verticalAlign=middle;whiteSpace=wrap;rounded=0;" vertex="1" parent="NRXpPPa1o-SLuwvgDlTt-46">
          <mxGeometry width="180" height="30" as="geometry" />
        </mxCell>
        <mxCell id="NRXpPPa1o-SLuwvgDlTt-38" value="" style="endArrow=none;html=1;rounded=0;exitX=0;exitY=0.25;exitDx=0;exitDy=0;entryX=1;entryY=0.25;entryDx=0;entryDy=0;" edge="1" parent="NRXpPPa1o-SLuwvgDlTt-46">
          <mxGeometry width="50" height="50" relative="1" as="geometry">
            <mxPoint y="30" as="sourcePoint" />
            <mxPoint x="180" y="30" as="targetPoint" />
          </mxGeometry>
        </mxCell>
        <mxCell id="NRXpPPa1o-SLuwvgDlTt-51" value="" style="group" vertex="1" connectable="0" parent="NRXpPPa1o-SLuwvgDlTt-46">
          <mxGeometry x="11.25" y="36" width="67.5" height="40" as="geometry" />
        </mxCell>
        <mxCell id="NRXpPPa1o-SLuwvgDlTt-52" value="" style="rounded=0;whiteSpace=wrap;html=1;" vertex="1" parent="NRXpPPa1o-SLuwvgDlTt-51">
          <mxGeometry width="67.5" height="40" as="geometry" />
        </mxCell>
        <mxCell id="NRXpPPa1o-SLuwvgDlTt-53" value="1" style="text;html=1;align=center;verticalAlign=middle;whiteSpace=wrap;rounded=0;" vertex="1" parent="NRXpPPa1o-SLuwvgDlTt-51">
          <mxGeometry width="67.5" height="20" as="geometry" />
        </mxCell>
        <mxCell id="NRXpPPa1o-SLuwvgDlTt-54" value="" style="endArrow=none;html=1;rounded=0;exitX=0;exitY=0.25;exitDx=0;exitDy=0;entryX=1;entryY=0.25;entryDx=0;entryDy=0;" edge="1" parent="NRXpPPa1o-SLuwvgDlTt-51">
          <mxGeometry width="50" height="50" relative="1" as="geometry">
            <mxPoint y="20" as="sourcePoint" />
            <mxPoint x="67.5" y="20" as="targetPoint" />
          </mxGeometry>
        </mxCell>
        <mxCell id="NRXpPPa1o-SLuwvgDlTt-55" value="页30" style="text;html=1;align=center;verticalAlign=middle;whiteSpace=wrap;rounded=0;" vertex="1" parent="NRXpPPa1o-SLuwvgDlTt-51">
          <mxGeometry y="20" width="67.5" height="20" as="geometry" />
        </mxCell>
        <mxCell id="NRXpPPa1o-SLuwvgDlTt-56" value="" style="group" vertex="1" connectable="0" parent="NRXpPPa1o-SLuwvgDlTt-46">
          <mxGeometry x="101.25" y="36" width="67.5" height="40" as="geometry" />
        </mxCell>
        <mxCell id="NRXpPPa1o-SLuwvgDlTt-57" value="" style="rounded=0;whiteSpace=wrap;html=1;" vertex="1" parent="NRXpPPa1o-SLuwvgDlTt-56">
          <mxGeometry width="67.5" height="40" as="geometry" />
        </mxCell>
        <mxCell id="NRXpPPa1o-SLuwvgDlTt-58" value="7" style="text;html=1;align=center;verticalAlign=middle;whiteSpace=wrap;rounded=0;" vertex="1" parent="NRXpPPa1o-SLuwvgDlTt-56">
          <mxGeometry width="67.5" height="20" as="geometry" />
        </mxCell>
        <mxCell id="NRXpPPa1o-SLuwvgDlTt-59" value="" style="endArrow=none;html=1;rounded=0;exitX=0;exitY=0.25;exitDx=0;exitDy=0;entryX=1;entryY=0.25;entryDx=0;entryDy=0;" edge="1" parent="NRXpPPa1o-SLuwvgDlTt-56">
          <mxGeometry width="50" height="50" relative="1" as="geometry">
            <mxPoint y="20" as="sourcePoint" />
            <mxPoint x="67.5" y="20" as="targetPoint" />
          </mxGeometry>
        </mxCell>
        <mxCell id="NRXpPPa1o-SLuwvgDlTt-60" value="页36" style="text;html=1;align=center;verticalAlign=middle;whiteSpace=wrap;rounded=0;" vertex="1" parent="NRXpPPa1o-SLuwvgDlTt-56">
          <mxGeometry y="20" width="67.5" height="20" as="geometry" />
        </mxCell>
        <mxCell id="NRXpPPa1o-SLuwvgDlTt-62" style="edgeStyle=orthogonalEdgeStyle;rounded=0;orthogonalLoop=1;jettySize=auto;html=1;exitX=1;exitY=0.25;exitDx=0;exitDy=0;entryX=0;entryY=0.25;entryDx=0;entryDy=0;" edge="1" parent="NRXpPPa1o-SLuwvgDlTt-46" source="NRXpPPa1o-SLuwvgDlTt-55" target="NRXpPPa1o-SLuwvgDlTt-60">
          <mxGeometry relative="1" as="geometry" />
        </mxCell>
        <mxCell id="NRXpPPa1o-SLuwvgDlTt-61" value="根节点" style="text;html=1;align=center;verticalAlign=middle;whiteSpace=wrap;rounded=0;" vertex="1" parent="1">
          <mxGeometry x="280" y="440" width="60" height="30" as="geometry" />
        </mxCell>
        <mxCell id="NRXpPPa1o-SLuwvgDlTt-63" value="" style="group" vertex="1" connectable="0" parent="1">
          <mxGeometry x="180" y="560" width="180" height="80" as="geometry" />
        </mxCell>
        <mxCell id="NRXpPPa1o-SLuwvgDlTt-64" value="" style="rounded=0;whiteSpace=wrap;html=1;" vertex="1" parent="NRXpPPa1o-SLuwvgDlTt-63">
          <mxGeometry width="180" height="80" as="geometry" />
        </mxCell>
        <mxCell id="NRXpPPa1o-SLuwvgDlTt-65" value="页30" style="text;html=1;align=center;verticalAlign=middle;whiteSpace=wrap;rounded=0;" vertex="1" parent="NRXpPPa1o-SLuwvgDlTt-63">
          <mxGeometry width="180" height="30" as="geometry" />
        </mxCell>
        <mxCell id="NRXpPPa1o-SLuwvgDlTt-66" value="" style="endArrow=none;html=1;rounded=0;exitX=0;exitY=0.25;exitDx=0;exitDy=0;entryX=1;entryY=0.25;entryDx=0;entryDy=0;" edge="1" parent="NRXpPPa1o-SLuwvgDlTt-63">
          <mxGeometry width="50" height="50" relative="1" as="geometry">
            <mxPoint y="30" as="sourcePoint" />
            <mxPoint x="180" y="30" as="targetPoint" />
          </mxGeometry>
        </mxCell>
        <mxCell id="NRXpPPa1o-SLuwvgDlTt-67" value="" style="group" vertex="1" connectable="0" parent="NRXpPPa1o-SLuwvgDlTt-63">
          <mxGeometry x="11.25" y="36" width="67.5" height="40" as="geometry" />
        </mxCell>
        <mxCell id="NRXpPPa1o-SLuwvgDlTt-68" value="" style="rounded=0;whiteSpace=wrap;html=1;" vertex="1" parent="NRXpPPa1o-SLuwvgDlTt-67">
          <mxGeometry width="67.5" height="40" as="geometry" />
        </mxCell>
        <mxCell id="NRXpPPa1o-SLuwvgDlTt-69" value="1" style="text;html=1;align=center;verticalAlign=middle;whiteSpace=wrap;rounded=0;" vertex="1" parent="NRXpPPa1o-SLuwvgDlTt-67">
          <mxGeometry width="67.5" height="20" as="geometry" />
        </mxCell>
        <mxCell id="NRXpPPa1o-SLuwvgDlTt-70" value="" style="endArrow=none;html=1;rounded=0;exitX=0;exitY=0.25;exitDx=0;exitDy=0;entryX=1;entryY=0.25;entryDx=0;entryDy=0;" edge="1" parent="NRXpPPa1o-SLuwvgDlTt-67">
          <mxGeometry width="50" height="50" relative="1" as="geometry">
            <mxPoint y="20" as="sourcePoint" />
            <mxPoint x="67.5" y="20" as="targetPoint" />
          </mxGeometry>
        </mxCell>
        <mxCell id="NRXpPPa1o-SLuwvgDlTt-71" value="页10" style="text;html=1;align=center;verticalAlign=middle;whiteSpace=wrap;rounded=0;" vertex="1" parent="NRXpPPa1o-SLuwvgDlTt-67">
          <mxGeometry y="20" width="67.5" height="20" as="geometry" />
        </mxCell>
        <mxCell id="NRXpPPa1o-SLuwvgDlTt-72" value="" style="group" vertex="1" connectable="0" parent="NRXpPPa1o-SLuwvgDlTt-63">
          <mxGeometry x="101.25" y="36" width="67.5" height="40" as="geometry" />
        </mxCell>
        <mxCell id="NRXpPPa1o-SLuwvgDlTt-73" value="" style="rounded=0;whiteSpace=wrap;html=1;" vertex="1" parent="NRXpPPa1o-SLuwvgDlTt-72">
          <mxGeometry width="67.5" height="40" as="geometry" />
        </mxCell>
        <mxCell id="NRXpPPa1o-SLuwvgDlTt-74" value="3" style="text;html=1;align=center;verticalAlign=middle;whiteSpace=wrap;rounded=0;" vertex="1" parent="NRXpPPa1o-SLuwvgDlTt-72">
          <mxGeometry width="67.5" height="20" as="geometry" />
        </mxCell>
        <mxCell id="NRXpPPa1o-SLuwvgDlTt-75" value="" style="endArrow=none;html=1;rounded=0;exitX=0;exitY=0.25;exitDx=0;exitDy=0;entryX=1;entryY=0.25;entryDx=0;entryDy=0;" edge="1" parent="NRXpPPa1o-SLuwvgDlTt-72">
          <mxGeometry width="50" height="50" relative="1" as="geometry">
            <mxPoint y="20" as="sourcePoint" />
            <mxPoint x="67.5" y="20" as="targetPoint" />
          </mxGeometry>
        </mxCell>
        <mxCell id="NRXpPPa1o-SLuwvgDlTt-76" value="页20" style="text;html=1;align=center;verticalAlign=middle;whiteSpace=wrap;rounded=0;" vertex="1" parent="NRXpPPa1o-SLuwvgDlTt-72">
          <mxGeometry y="20" width="67.5" height="20" as="geometry" />
        </mxCell>
        <mxCell id="NRXpPPa1o-SLuwvgDlTt-77" style="edgeStyle=orthogonalEdgeStyle;rounded=0;orthogonalLoop=1;jettySize=auto;html=1;exitX=1;exitY=0.25;exitDx=0;exitDy=0;entryX=0;entryY=0.25;entryDx=0;entryDy=0;" edge="1" parent="NRXpPPa1o-SLuwvgDlTt-63" source="NRXpPPa1o-SLuwvgDlTt-71" target="NRXpPPa1o-SLuwvgDlTt-76">
          <mxGeometry relative="1" as="geometry" />
        </mxCell>
        <mxCell id="NRXpPPa1o-SLuwvgDlTt-78" value="" style="group" vertex="1" connectable="0" parent="1">
          <mxGeometry x="540" y="560" width="180" height="80" as="geometry" />
        </mxCell>
        <mxCell id="NRXpPPa1o-SLuwvgDlTt-96" style="edgeStyle=orthogonalEdgeStyle;rounded=0;orthogonalLoop=1;jettySize=auto;html=1;exitX=0;exitY=0.5;exitDx=0;exitDy=0;" edge="1" parent="NRXpPPa1o-SLuwvgDlTt-78" source="NRXpPPa1o-SLuwvgDlTt-79">
          <mxGeometry relative="1" as="geometry">
            <mxPoint x="-180" y="40" as="targetPoint" />
          </mxGeometry>
        </mxCell>
        <mxCell id="NRXpPPa1o-SLuwvgDlTt-79" value="" style="rounded=0;whiteSpace=wrap;html=1;" vertex="1" parent="NRXpPPa1o-SLuwvgDlTt-78">
          <mxGeometry width="180" height="80" as="geometry" />
        </mxCell>
        <mxCell id="NRXpPPa1o-SLuwvgDlTt-80" value="页36" style="text;html=1;align=center;verticalAlign=middle;whiteSpace=wrap;rounded=0;" vertex="1" parent="NRXpPPa1o-SLuwvgDlTt-78">
          <mxGeometry width="180" height="30" as="geometry" />
        </mxCell>
        <mxCell id="NRXpPPa1o-SLuwvgDlTt-81" value="" style="endArrow=none;html=1;rounded=0;exitX=0;exitY=0.25;exitDx=0;exitDy=0;entryX=1;entryY=0.25;entryDx=0;entryDy=0;" edge="1" parent="NRXpPPa1o-SLuwvgDlTt-78">
          <mxGeometry width="50" height="50" relative="1" as="geometry">
            <mxPoint y="30" as="sourcePoint" />
            <mxPoint x="180" y="30" as="targetPoint" />
          </mxGeometry>
        </mxCell>
        <mxCell id="NRXpPPa1o-SLuwvgDlTt-82" value="" style="group" vertex="1" connectable="0" parent="NRXpPPa1o-SLuwvgDlTt-78">
          <mxGeometry x="11.25" y="36" width="67.5" height="40" as="geometry" />
        </mxCell>
        <mxCell id="NRXpPPa1o-SLuwvgDlTt-83" value="" style="rounded=0;whiteSpace=wrap;html=1;" vertex="1" parent="NRXpPPa1o-SLuwvgDlTt-82">
          <mxGeometry width="67.5" height="40" as="geometry" />
        </mxCell>
        <mxCell id="NRXpPPa1o-SLuwvgDlTt-84" value="7" style="text;html=1;align=center;verticalAlign=middle;whiteSpace=wrap;rounded=0;" vertex="1" parent="NRXpPPa1o-SLuwvgDlTt-82">
          <mxGeometry width="67.5" height="20" as="geometry" />
        </mxCell>
        <mxCell id="NRXpPPa1o-SLuwvgDlTt-85" value="" style="endArrow=none;html=1;rounded=0;exitX=0;exitY=0.25;exitDx=0;exitDy=0;entryX=1;entryY=0.25;entryDx=0;entryDy=0;" edge="1" parent="NRXpPPa1o-SLuwvgDlTt-82">
          <mxGeometry width="50" height="50" relative="1" as="geometry">
            <mxPoint y="20" as="sourcePoint" />
            <mxPoint x="67.5" y="20" as="targetPoint" />
          </mxGeometry>
        </mxCell>
        <mxCell id="NRXpPPa1o-SLuwvgDlTt-86" value="页8" style="text;html=1;align=center;verticalAlign=middle;whiteSpace=wrap;rounded=0;" vertex="1" parent="NRXpPPa1o-SLuwvgDlTt-82">
          <mxGeometry y="20" width="67.5" height="20" as="geometry" />
        </mxCell>
        <mxCell id="NRXpPPa1o-SLuwvgDlTt-87" value="" style="group" vertex="1" connectable="0" parent="NRXpPPa1o-SLuwvgDlTt-78">
          <mxGeometry x="101.25" y="36" width="67.5" height="40" as="geometry" />
        </mxCell>
        <mxCell id="NRXpPPa1o-SLuwvgDlTt-88" value="" style="rounded=0;whiteSpace=wrap;html=1;" vertex="1" parent="NRXpPPa1o-SLuwvgDlTt-87">
          <mxGeometry width="67.5" height="40" as="geometry" />
        </mxCell>
        <mxCell id="NRXpPPa1o-SLuwvgDlTt-89" value="9" style="text;html=1;align=center;verticalAlign=middle;whiteSpace=wrap;rounded=0;" vertex="1" parent="NRXpPPa1o-SLuwvgDlTt-87">
          <mxGeometry width="67.5" height="20" as="geometry" />
        </mxCell>
        <mxCell id="NRXpPPa1o-SLuwvgDlTt-90" value="" style="endArrow=none;html=1;rounded=0;exitX=0;exitY=0.25;exitDx=0;exitDy=0;entryX=1;entryY=0.25;entryDx=0;entryDy=0;" edge="1" parent="NRXpPPa1o-SLuwvgDlTt-87">
          <mxGeometry width="50" height="50" relative="1" as="geometry">
            <mxPoint y="20" as="sourcePoint" />
            <mxPoint x="67.5" y="20" as="targetPoint" />
          </mxGeometry>
        </mxCell>
        <mxCell id="NRXpPPa1o-SLuwvgDlTt-91" value="页22" style="text;html=1;align=center;verticalAlign=middle;whiteSpace=wrap;rounded=0;" vertex="1" parent="NRXpPPa1o-SLuwvgDlTt-87">
          <mxGeometry y="20" width="67.5" height="20" as="geometry" />
        </mxCell>
        <mxCell id="NRXpPPa1o-SLuwvgDlTt-92" style="edgeStyle=orthogonalEdgeStyle;rounded=0;orthogonalLoop=1;jettySize=auto;html=1;exitX=1;exitY=0.25;exitDx=0;exitDy=0;entryX=0;entryY=0.25;entryDx=0;entryDy=0;" edge="1" parent="NRXpPPa1o-SLuwvgDlTt-78" source="NRXpPPa1o-SLuwvgDlTt-86" target="NRXpPPa1o-SLuwvgDlTt-91">
          <mxGeometry relative="1" as="geometry" />
        </mxCell>
        <mxCell id="NRXpPPa1o-SLuwvgDlTt-93" style="edgeStyle=orthogonalEdgeStyle;rounded=0;orthogonalLoop=1;jettySize=auto;html=1;exitX=0.5;exitY=1;exitDx=0;exitDy=0;entryX=0.5;entryY=0;entryDx=0;entryDy=0;" edge="1" parent="1" source="NRXpPPa1o-SLuwvgDlTt-55" target="NRXpPPa1o-SLuwvgDlTt-65">
          <mxGeometry relative="1" as="geometry" />
        </mxCell>
        <mxCell id="NRXpPPa1o-SLuwvgDlTt-94" style="edgeStyle=orthogonalEdgeStyle;rounded=0;orthogonalLoop=1;jettySize=auto;html=1;exitX=0.5;exitY=1;exitDx=0;exitDy=0;entryX=0.5;entryY=0;entryDx=0;entryDy=0;" edge="1" parent="1" source="NRXpPPa1o-SLuwvgDlTt-60" target="NRXpPPa1o-SLuwvgDlTt-80">
          <mxGeometry relative="1" as="geometry" />
        </mxCell>
        <mxCell id="NRXpPPa1o-SLuwvgDlTt-95" style="edgeStyle=orthogonalEdgeStyle;rounded=0;orthogonalLoop=1;jettySize=auto;html=1;exitX=1;exitY=1;exitDx=0;exitDy=0;entryX=0;entryY=0.75;entryDx=0;entryDy=0;" edge="1" parent="1" source="NRXpPPa1o-SLuwvgDlTt-65" target="NRXpPPa1o-SLuwvgDlTt-79">
          <mxGeometry relative="1" as="geometry" />
        </mxCell>
        <mxCell id="NRXpPPa1o-SLuwvgDlTt-97" value="" style="group" vertex="1" connectable="0" parent="1">
          <mxGeometry x="50" y="690" width="180" height="80" as="geometry" />
        </mxCell>
        <mxCell id="NRXpPPa1o-SLuwvgDlTt-98" value="" style="rounded=0;whiteSpace=wrap;html=1;" vertex="1" parent="NRXpPPa1o-SLuwvgDlTt-97">
          <mxGeometry width="180" height="80" as="geometry" />
        </mxCell>
        <mxCell id="NRXpPPa1o-SLuwvgDlTt-99" value="页30" style="text;html=1;align=center;verticalAlign=middle;whiteSpace=wrap;rounded=0;" vertex="1" parent="NRXpPPa1o-SLuwvgDlTt-97">
          <mxGeometry width="180" height="30" as="geometry" />
        </mxCell>
        <mxCell id="NRXpPPa1o-SLuwvgDlTt-100" value="" style="endArrow=none;html=1;rounded=0;exitX=0;exitY=0.25;exitDx=0;exitDy=0;entryX=1;entryY=0.25;entryDx=0;entryDy=0;" edge="1" parent="NRXpPPa1o-SLuwvgDlTt-97">
          <mxGeometry width="50" height="50" relative="1" as="geometry">
            <mxPoint y="30" as="sourcePoint" />
            <mxPoint x="180" y="30" as="targetPoint" />
          </mxGeometry>
        </mxCell>
        <mxCell id="NRXpPPa1o-SLuwvgDlTt-101" value="" style="group" vertex="1" connectable="0" parent="NRXpPPa1o-SLuwvgDlTt-97">
          <mxGeometry x="11.25" y="36" width="67.5" height="40" as="geometry" />
        </mxCell>
        <mxCell id="NRXpPPa1o-SLuwvgDlTt-102" value="" style="rounded=0;whiteSpace=wrap;html=1;" vertex="1" parent="NRXpPPa1o-SLuwvgDlTt-101">
          <mxGeometry width="67.5" height="40" as="geometry" />
        </mxCell>
        <mxCell id="NRXpPPa1o-SLuwvgDlTt-103" value="1" style="text;html=1;align=center;verticalAlign=middle;whiteSpace=wrap;rounded=0;" vertex="1" parent="NRXpPPa1o-SLuwvgDlTt-101">
          <mxGeometry width="67.5" height="20" as="geometry" />
        </mxCell>
        <mxCell id="NRXpPPa1o-SLuwvgDlTt-104" value="" style="endArrow=none;html=1;rounded=0;exitX=0;exitY=0.25;exitDx=0;exitDy=0;entryX=1;entryY=0.25;entryDx=0;entryDy=0;" edge="1" parent="NRXpPPa1o-SLuwvgDlTt-101">
          <mxGeometry width="50" height="50" relative="1" as="geometry">
            <mxPoint y="20" as="sourcePoint" />
            <mxPoint x="67.5" y="20" as="targetPoint" />
          </mxGeometry>
        </mxCell>
        <mxCell id="NRXpPPa1o-SLuwvgDlTt-105" value="页10" style="text;html=1;align=center;verticalAlign=middle;whiteSpace=wrap;rounded=0;" vertex="1" parent="NRXpPPa1o-SLuwvgDlTt-101">
          <mxGeometry y="20" width="67.5" height="20" as="geometry" />
        </mxCell>
        <mxCell id="NRXpPPa1o-SLuwvgDlTt-106" value="" style="group" vertex="1" connectable="0" parent="NRXpPPa1o-SLuwvgDlTt-97">
          <mxGeometry x="101.25" y="36" width="67.5" height="40" as="geometry" />
        </mxCell>
        <mxCell id="NRXpPPa1o-SLuwvgDlTt-107" value="" style="rounded=0;whiteSpace=wrap;html=1;" vertex="1" parent="NRXpPPa1o-SLuwvgDlTt-106">
          <mxGeometry width="67.5" height="40" as="geometry" />
        </mxCell>
        <mxCell id="NRXpPPa1o-SLuwvgDlTt-108" value="3" style="text;html=1;align=center;verticalAlign=middle;whiteSpace=wrap;rounded=0;" vertex="1" parent="NRXpPPa1o-SLuwvgDlTt-106">
          <mxGeometry width="67.5" height="20" as="geometry" />
        </mxCell>
        <mxCell id="NRXpPPa1o-SLuwvgDlTt-109" value="" style="endArrow=none;html=1;rounded=0;exitX=0;exitY=0.25;exitDx=0;exitDy=0;entryX=1;entryY=0.25;entryDx=0;entryDy=0;" edge="1" parent="NRXpPPa1o-SLuwvgDlTt-106">
          <mxGeometry width="50" height="50" relative="1" as="geometry">
            <mxPoint y="20" as="sourcePoint" />
            <mxPoint x="67.5" y="20" as="targetPoint" />
          </mxGeometry>
        </mxCell>
        <mxCell id="NRXpPPa1o-SLuwvgDlTt-110" value="页20" style="text;html=1;align=center;verticalAlign=middle;whiteSpace=wrap;rounded=0;" vertex="1" parent="NRXpPPa1o-SLuwvgDlTt-106">
          <mxGeometry y="20" width="67.5" height="20" as="geometry" />
        </mxCell>
        <mxCell id="NRXpPPa1o-SLuwvgDlTt-111" style="edgeStyle=orthogonalEdgeStyle;rounded=0;orthogonalLoop=1;jettySize=auto;html=1;exitX=1;exitY=0.25;exitDx=0;exitDy=0;entryX=0;entryY=0.25;entryDx=0;entryDy=0;" edge="1" parent="NRXpPPa1o-SLuwvgDlTt-97" source="NRXpPPa1o-SLuwvgDlTt-105" target="NRXpPPa1o-SLuwvgDlTt-110">
          <mxGeometry relative="1" as="geometry" />
        </mxCell>
        <mxCell id="NRXpPPa1o-SLuwvgDlTt-112" value="分支节点" style="text;html=1;align=center;verticalAlign=middle;whiteSpace=wrap;rounded=0;" vertex="1" parent="1">
          <mxGeometry x="110" y="560" width="60" height="30" as="geometry" />
        </mxCell>
        <mxCell id="NRXpPPa1o-SLuwvgDlTt-113" value="根节点" style="text;html=1;align=center;verticalAlign=middle;whiteSpace=wrap;rounded=0;" vertex="1" parent="1">
          <mxGeometry x="-30" y="690" width="60" height="30" as="geometry" />
        </mxCell>
      </root>
    </mxGraphModel>
  </diagram>
</mxfile>
